<?xml version="1.0" standalone="no"?>
<!DOCTYPE svg PUBLIC "-//W3C//DTD SVG 1.1//EN" "http://www.w3.org/Graphics/SVG/1.1/DTD/svg11.dtd" >
<!--
2013-9-30: Created.
-->
<svg>
<metadata>
Created by iconfont
</metadata>
<defs>

<font id="iconfont" horiz-adv-x="1024" >
  <font-face
    font-family="iconfont"
    font-weight="500"
    font-stretch="normal"
    units-per-em="1024"
    ascent="896"
    descent="-128"
  />
    <missing-glyph />
    
    <glyph glyph-name="sousuo" unicode="&#58903;" d="M425.38666667 79.14666666999995c92.37333333 0 179.73333333 31.78666667 249.81333333 90.13333333l252.26666667-252.26666667c7.04-7.04 16.32-10.56 25.6-10.56s18.56 3.52 25.6 10.56c14.18666667 14.18666667 14.18666667 37.12 0 51.2L726.50666667 220.58666667c127.57333333 153.6 119.46666667 382.61333333-24.42666667 526.50666666-73.92 73.81333333-172.16 114.56-276.69333333 114.56-104.53333333 0-202.77333333-40.74666667-276.69333334-114.56-152.53333333-152.53333333-152.53333333-400.74666667 0-553.28 74.02666667-74.02666667 172.26666667-114.66666667 276.69333334-114.66666666zM200 695.7866666699999c60.26666667 60.16 140.26666667 93.33333333 225.38666667 93.33333333 85.12 0 165.22666667-33.17333333 225.38666666-93.33333333 124.26666667-124.26666667 124.26666667-326.61333333 0-450.88-60.26666667-60.16-140.26666667-93.33333333-225.38666666-93.33333334S260.26666667 184.74666666999997 200 244.90666667000005C75.73333333 369.28 75.73333333 571.52 200 695.7866666699999z"  horiz-adv-x="1024" />

    
    <glyph glyph-name="zonghe" unicode="&#59038;" d="M483.882616 412.242228 184.580902 412.242228c-60.681034 0-110.049418 49.367361-110.049418 110.049418L74.531484 711.543941c0 60.681034 49.367361 110.049418 110.049418 110.049418l189.252295 0c60.681034 0 110.049418-49.367361 110.049418-110.049418L483.882616 412.242228zM184.580902 781.575948c-38.614459 0-70.030983-31.416524-70.030983-70.030983l0-189.253318c0-38.614459 31.416524-70.030983 70.030983-70.030983l259.283278 0L443.86418 711.543941c0 38.614459-31.416524 70.030983-70.030983 70.030983L184.580902 781.574924zM840.875263 412.242228 539.619034 412.242228 539.619034 711.543941c0 60.681034 49.367361 110.049418 110.049418 110.049418L840.875263 821.59336c60.681034 0 110.049418-49.367361 110.049418-110.049418l0-189.253318C950.924681 461.609589 901.556297 412.242228 840.875263 412.242228zM579.636446 452.25964 840.875263 452.25964c38.614459 0 70.030983 31.416524 70.030983 70.030983L910.906246 711.543941c0 38.614459-31.416524 70.030983-70.030983 70.030983L649.667429 781.574924c-38.615483 0-70.030983-31.416524-70.030983-70.030983L579.636446 452.25964zM373.83422-54.798814 184.580902-54.798814c-60.681034 0-110.049418 49.367361-110.049418 110.049418L74.531484 246.458437c0 60.681034 49.367361 110.049418 110.049418 110.049418l299.301713 0 0-301.257252C483.882616-5.43043 434.515255-54.798814 373.83422-54.798814zM184.580902 316.490443c-38.614459 0-70.030983-31.416524-70.030983-70.030983l0-191.208856c0-38.614459 31.416524-70.030983 70.030983-70.030983l189.252295 0c38.614459 0 70.030983 31.416524 70.030983 70.030983l0 261.239839L184.580902 316.490443zM840.875263-54.798814 649.667429-54.798814c-60.681034 0-110.049418 49.367361-110.049418 110.049418L539.618011 356.507856 840.875263 356.507856c60.681034 0 110.049418-49.367361 110.049418-110.049418l0-191.208856C950.924681-5.43043 901.556297-54.798814 840.875263-54.798814zM579.636446 316.490443l0-261.239839c0-38.614459 31.4155-70.030983 70.030983-70.030983L840.875263-14.780379c38.614459 0 70.030983 31.416524 70.030983 70.030983L910.906246 246.458437c0 38.614459-31.416524 70.030983-70.030983 70.030983L579.636446 316.48942z"  horiz-adv-x="1024" />

    
    <glyph glyph-name="quanxuan" unicode="&#58907;" d="M825.1-28H198.8c-12.1 0-21.8 9.8-21.8 21.8 0 12.1 9.8 21.8 21.8 21.8h626.3c30.4 0 55.1 24.7 55.1 55.1V356.6c0 12.1 9.8 21.8 21.8 21.8 12.1 0 21.8-9.8 21.8-21.8v-285.9c0-54.4-44.3-98.7-98.7-98.7zM433.5 283.2h-0.8c-6.1 0.2-11.8 3-15.7 7.6L241.1 495.4c-7.9 9.1-6.8 22.9 2.3 30.8 9.1 7.9 22.9 6.8 30.8-2.3l160.5-186.8L887.4 790c8.5 8.5 22.4 8.5 30.9 0s8.5-22.4 0-30.9L448.9 289.6c-4.1-4.1-9.6-6.4-15.4-6.4zM716.5 80.4H197.4c-54.5 0-98.8 44.3-98.8 98.8v0.3l6.9 518.9c0.1 54.4 44.4 98.6 98.8 98.6h475.3c12.1 0 21.8-9.8 21.8-21.8 0-12.1-9.8-21.8-21.8-21.8H204.3c-30.4 0-55.1-24.7-55.1-55.1v-0.3l-6.9-518.9c0.1-30.3 24.8-55 55.1-55h519.1c30.4 0 55.1 24.7 55.1 55.1V477.6c0 12.1 9.8 21.8 21.8 21.8 12.1 0 21.8-9.8 21.8-21.8v-298.4c0-54.5-44.3-98.8-98.7-98.8z"  horiz-adv-x="1024" />

    
    <glyph glyph-name="jianshao" unicode="&#58973;" d="M692.76461731 414.12743579H331.23538269a30.12743579 30.12743579 0 0 1 0-60.25487158h361.52923462a30.12743579 30.12743579 0 0 1 0 60.25487158zM508.38470802 866.03897775A472.69947313 472.69947313 0 0 1 29.96102225 387.61529198 492.58358099 492.58358099 0 0 1 515.61529198-98.03897774999996h4.21784129A473.30202115 473.30202115 0 0 1 994.03897775 380.38470801999995 492.58358099 492.58358099 0 0 1 508.38470802 866.03897775zM813.27436174 82.72563825999998a408.22676027 408.22676027 0 0 0-296.75524643-120.50974444A432.02743412 432.02743412 0 0 0 90.21589382 388.21784129 412.44460028 412.44460028 0 0 0 504.16686673 805.78410618h3.61529198A432.02743412 432.02743412 0 0 0 933.78410618 379.78215871 411.54077825 411.54077825 0 0 0 813.27436174 82.72563825999998z"  horiz-adv-x="1024" />

    
    <glyph glyph-name="zengjia" unicode="&#58969;" d="M511.25333333 808.3199999999999c57.38666667 0 112.96-11.2 165.22666667-33.38666667 50.56-21.33333333 96-51.94666667 134.93333333-90.98666666 39.04-39.04 69.65333333-84.37333333 90.98666667-134.93333334 22.08-52.26666667 33.38666667-107.94666667 33.38666667-165.22666666S924.58666667 270.82666667 902.4 218.55999999999995c-21.33333333-50.56-51.94666667-96-90.98666667-134.93333333-39.04-39.04-84.37333333-69.65333333-134.93333333-90.98666667-52.26666667-22.08-107.94666667-33.38666667-165.22666667-33.38666667S398.4-29.546666670000036 346.02666667-7.466666669999995c-50.56 21.33333333-96 51.94666667-134.93333334 90.98666667-39.04 39.04-69.65333333 84.37333333-90.98666666 134.93333333-22.08 52.26666667-33.38666667 107.94666667-33.38666667 165.22666667s11.2 112.96 33.38666667 165.22666667c21.33333333 50.56 51.94666667 96 90.98666666 134.93333333 39.04 39.04 84.37333333 69.65333333 134.93333334 90.98666667 52.37333333 22.29333333 107.94666667 33.49333333 165.22666666 33.49333333m0 53.33333333c-263.89333333 0-477.86666667-213.97333333-477.86666666-477.86666666s213.97333333-477.86666667 477.86666666-477.86666667 477.86666667 213.97333333 477.86666667 477.86666667-213.86666667 477.86666667-477.86666667 477.86666666zM239.04 410.88h546.24v-53.33333333H239.04zM485.44 657.3866666700001h53.33333333v-546.24h-53.33333333z"  horiz-adv-x="1024" />

    
    <glyph glyph-name="yuedu" unicode="&#59398;" d="M879.978667 775.872 490.453333 775.872l-232.661333 108.586667c-12.8 5.952-26.304 9.002667-40.170667 9.002667-52.330667 0-94.954667-42.645333-94.954667-95.061333l0-24.256C53.376 763.754667 0 704.021333 0 631.872L0 18.56c0-79.445333 64.618667-144.021333 144.021333-144.021333L512-125.461333l367.978667 0c79.445333 0 144.021333 64.576 144.021333 144.021333L1024 631.872C1024 711.296 959.424 775.893333 879.978667 775.872zM165.397333 798.4c0 32.32 27.136 52.330667 52.224 52.330667 7.573333 0 14.997333-1.685333 22.101333-4.992l250.922667-117.098667 0-774.677333L195.541333 91.648c-18.304 8.618667-30.144 27.136-30.144 47.402667L165.397333 798.4zM42.730667 18.56 42.730667 631.893333c0 48.533333 34.325333 89.088 79.936 98.922667l0-591.786667c0-36.757333 21.482667-70.549333 54.784-86.08l290.816-135.658667L144.021333-82.709333C88.149333-82.709333 42.730667-37.269333 42.730667 18.56zM981.269333 18.56c0-55.850667-45.44-101.290667-101.290667-101.290667L532.970667-82.730667c0.149333 1.066667 0.405333 2.112 0.405333 3.178667L533.376 733.162667l346.602667 0c55.850667 0 101.290667-45.44 101.290667-101.290667L981.269333 18.56z"  horiz-adv-x="1024" />

    
    <glyph glyph-name="wenzhangzhuanzai" unicode="&#58925;" d="M978.37072625 495.04978969L680.95820844 264.11997562C671.93601312 255.09778030999996 656.89902031 264.11997562 656.89902031 276.0855825L656.89902031 429.07898437C422.57788437 429.07898437 332.48390281 357.09338156 209.30853875 150.15876844000002 209.30853875 150.15876844000002 224.34553062 624.04799063 656.89902031 624.04799063L656.89902031 765.0117975000001C656.89902031 777.04139156 671.93601312 785.99959969 680.95820844 777.04139156L978.37072625 546.04759031C996.35112969 534.0819834399999 996.35112969 507.07938375 978.37072625 495.04978969ZM347.52089563 822.02439469L116.20715844 822.02439469C92.14797031 822.02439469 74.10357969 804.04399125 74.10357969 780.04879031L74.10357969-14.80024031000005C74.10357969-38.79544124999995 92.14797031-56.83983188000002 116.20715844-56.83983188000002L867.22495531-56.83983188000002C891.22015625-56.83983188000002 909.26454688-38.79544124999995 909.26454688-14.80024031000005L909.26454688 153.16616719C909.26454688 165.13177406 918.28674219 174.15396938000004 930.31633719 174.15396938000004 942.28194406 174.15396938000004 951.30413937 168.13917187000004 951.30413937 156.10957781000002L951.30413937-11.856828749999977C951.30413937-56.83983188000002 912.27194563-95.80803844000002 867.22495531-95.80803844000002L116.20715844-95.80803844000002C71.09618094-95.80803844000002 32.06398719-56.83983188000002 32.06398719-11.856828749999977L32.06398719 780.04879031C32.06398719 825.03179344 71.09618094 864 116.20715844 864L344.51349688 864C359.4865025 864 368.50869781 854.97780469 368.50869781 843.01219781 368.50869781 830.98260375 359.4865025 822.02439469 347.52089563 822.02439469Z"  horiz-adv-x="1024" />

    
    <glyph glyph-name="dianzan" unicode="&#58902;" d="M606.88377059 873.42373091c-52.95838435 0-99.14986269-36.18822941-108.85889934-87.38133333 0 0-15.74040803-80.17310834-23.97837994-109.00600718-13.53380864-47.51543865-60.90214173-100.0325029-95.177984-116.80265785-25.89076594-12.79827627-122.09849571-12.94538297-127.9827604-12.94538183h-130.92489443C83.91973091 547.2883507199999 54.6455131 518.1612396099999 54.6455131 481.97301021v-522.52272072c0-36.0411227 29.12711111-65.31534051 65.31533938-65.31534051h602.84293689c96.94326329 0 179.32297216 70.90539179 193.73942101 166.81890929L967.0007808 397.23959637c11.91563605 78.99625586-49.28071794 149.90164765-129.15961401 149.90164765h-148.57768732s22.06599282 73.11199118 33.2460965 196.53444608c5.59005127 62.52031431-38.68904107 122.09849571-103.71016818 128.8654006-3.97187869 0.58842681-7.94375737 0.88264021-11.9156372 0.88264021zM315.75976619-40.40260380999996V484.0325029c42.80802645 2.79502621 73.70041799 8.82639758 91.94163882 17.94700743 48.10386546 23.83127325 109.59443285 89.14661262 129.01250731 157.40408604 8.67929088 30.45107029 23.53705984 105.76966087 25.30233913 114.59605846 3.82477198 19.71228786 22.65441963 34.27584341 44.72041244 34.27584227 1.76527929 0 3.53055858-0.1471067 5.29583901-0.2942134 31.0394971-3.23634517 47.66254535-32.65766969 45.45594595-57.96000882-10.29746347-114.30184505-30.59817699-183.14774414-30.8923904-183.58906425l-25.44944583-84.14498702h236.69455417c19.27096775 0 36.92376178-8.09086407 49.57493248-22.65441963 12.65116957-14.56355555 17.94700743-33.2460965 15.00487452-52.36995755l-50.31046371-336.28573809c-9.70903666-64.4327003-63.99138019-111.21260658-129.15961401-111.21260544H315.75976619z m-195.79891371 0V482.12011691h130.48357433v-522.52272072H119.96085248z m0 0"  horiz-adv-x="1024" />

    
    <glyph glyph-name="jishufuwushang" unicode="&#59182;" d="M301.888 792.45866667c59.66933333 40.66133333 131.52 63.21066667 203.73333333 63.81866666 46.51733333 0.77866667 93.184-7.36 136.69333334-23.84 70.64533333-26.54933333 132.61866667-75.34933333 175.28533333-137.568 17.568-25.568 31.98933333-53.312 42.624-82.464 35.70133333-5.64266667 68.13866667-28.928 84.36266667-61.30133333 17.52533333-33.44 16.82133333-75.552-1.64266667-108.46933333-17.35466667-31.73333333-50.4-54.336-86.38933333-58.53866667-8.59733333-0.78933333-17.90933333-2.34666667-25.92 1.81333333-7.94666667 4-13.408 12.61866667-13.312 21.54666667 0.04266667 58.32533333-0.02133333 116.66133333 0.032 174.98666667 0.04266667 3.70133333-1.83466667 7.01866667-2.89066667 10.47466666-25.57866667 71.85066667-77.65333333 133.77066667-143.936 171.46666667-43.63733333 25.04533333-93.25866667 39.53066667-143.52 41.97333333-63.08266667 3.296-127.05066667-12.352-181.248-44.85333333-65.26933333-38.66666667-116.14933333-101.024-140.53333333-172.896-0.97066667-3.072-2.464-6.09066667-2.31466667-9.39733333 0.064-56.90666667-0.01066667-113.80266667 0.04266667-170.70933334 0.26666667-9.12-4.93866667-18.16533333-13.06666667-22.37866666-3.89333333-2.112-8.352-3.06133333-12.77866667-2.944-26.048 0.14933333-51.936 9.45066667-72.032 26.048-21.55733333 17.55733333-36.416 43.17866667-40.72533333 70.66666666-4.29866667 26.34666667 0.768 54.15466667 14.432 77.13066667 17.22666667 29.57866667 48.27733333 50.56 82.16533333 55.46666667 26.60266667 72.768 76.69333333 136.672 140.93866667 179.968M116.65066667 521.39733333c-5.45066667-14.45333333-5.568-30.86933333-0.16-45.35466666 6.144-17.23733333 19.94666667-31.41333333 36.82133333-38.368 0.032 40.52266667 0.032 81.04533333 0 121.568-16.704-6.944-30.35733333-20.864-36.66133333-37.84533334m750.29333333 37.792c-0.01066667-40.48-0.032-80.94933333 0.01066667-121.42933333 16.24533333 6.67733333 29.58933333 20.07466667 36.01066666 36.43733333 7.05066667 17.20533333 6.112 37.41866667-2.464 53.90933334-6.96533333 13.96266667-19.18933333 25.088-33.55733333 31.08266666zM502.77333333 748.448c41.30133333 1.22666667 82.944-7.88266667 119.744-26.77333333 37.00266667-18.688 69.088-46.95466667 92.50133334-81.16266667 21.36533333-31.104 35.488-67.168 40.78933333-104.544 6.336-43.79733333 0.864-89.30133333-16.05333333-130.21866667-14.24-34.69866667-36.53333333-66.02666667-64.55466667-90.944-30.54933333-27.27466667-67.95733333-46.82666667-107.82933333-56.18133333-47.25333333-11.15733333-97.792-8.224-143.33866667 8.66133333-32.39466667 11.904-62.16533333 30.77333333-86.92266667 54.80533334-28.77866667 27.92533333-50.76266667 62.89066667-63.09333333 101.06666666-19.50933333 59.27466667-15.52 125.92 11.104 182.38933334 26.912 57.86666667 77.024 104.46933333 136.78933333 126.912 25.80266667 9.83466667 53.26933333 15.168 80.864 15.98933333m-13.68533333-50.624c-29.38666667-3.05066667-58.05866667-12.832-83.168-28.416-24.84266667-15.296-46.24-36.14933333-62.176-60.58666667-18.688-28.42666667-29.81333333-61.77066667-31.904-95.72266666-2.88-42.752 8.576-86.336 32.33066667-122.016 21.056-32.11733333 51.68-57.84533333 86.912-73.12 37.33333333-16.29866667 79.75466667-20.55466667 119.60533333-12.17066667 39.05066667 8 75.392 28.34133333 102.89066667 57.17333333 24.576 25.58933333 42.13333333 57.87733333 50.05866666 92.46933334 10.21866667 43.712 5.024 90.86933333-14.66666666 131.22133333-15.95733333 33.09866667-41.33333333 61.55733333-72.352 81.248-37.46133333 24.096-83.264 34.73066667-127.53066667 29.92zM280.896 294.96533333c7.34933333 1.93066667 15.52 0.30933333 21.54666667-4.352 32.24533333-23.88266667 68.36266667-42.63466667 106.72-54.51733333 46.19733333-14.432 95.50933333-18.76266667 143.50933333-12.65066667 56.256 6.98666667 110.336 28.736 156.704 61.184 5.48266667 3.47733333 10.208 8.45866667 16.65066667 10.176 7.52 2.19733333 16.01066667 0.56533333 22.176-4.27733333 47.98933333-35.68 88.33066667-81.344 118.83733333-132.72533333 40.33066667-67.75466667 63.62666667-145.32266667 68.69333333-223.936 0.352-9.46133333-5.36533333-18.77333333-13.952-22.784-6.31466667-3.22133333-13.6-2.48533333-20.43733333-2.54933334h-780.8c-7.33866667 0.17066667-15.12533333-0.88533333-21.96266667 2.432-7.14666667 3.38133333-12.576 10.35733333-13.81333333 18.19733334-0.736 6.19733333 0.256 12.42666667 0.736 18.60266666 7.34933333 79.86133333 33.55733333 158.13333333 77.23733333 225.49333334 28.30933333 43.712 63.88266667 82.79466667 105.344 114.35733333 3.88266667 3.04 7.91466667 6.176 12.81066667 7.34933333m-49.81333333-112.10666666c-52.064-63.92533333-84.33066667-143.09333333-94.57066667-224.72533334 249.024 0 498.03733333-0.02133333 747.06133333 0.01066667-6.41066667 51.872-21.77066667 102.66666667-45.48266666 149.25866667-25.78133333 50.74133333-61.696 96.48-105.792 132.56533333-54.144-36.40533333-116.97066667-60.20266667-181.99466667-66.752-49.19466667-5.088-99.37066667-0.8-146.93333333 12.78933333-41.088 11.60533333-80.064 30.18666667-115.488 53.952a399.71413333 399.71413333 0 0 1-56.8-57.09866666zM452.64 93.24800000000005a23.91466667 23.91466667 0 0 0 7.05066667 1.152c33.44 0.01066667 66.88-0.01066667 100.32 0.01066667 7.84 0.02133333 15.57333333-3.95733333 20.064-10.4 6.12266667-8.45866667 6.112-20.88533333-0.13866667-29.28-4.52266667-6.28266667-12.128-10.35733333-19.91466667-10.21866667-33.80266667 0.07466667-67.60533333-0.04266667-101.408 0.05333333-12.29866667 0.352-23.02933333 11.37066667-23.168 23.65866667-0.87466667 11.008 6.69866667 21.80266667 17.19466667 25.024z"  horiz-adv-x="1024" />

    
    <glyph glyph-name="renwu" unicode="&#59001;" d="M655.1968 316.4448c-3.27466667 11.90186667-8.04693333 23.17546667-14.04053333 33.68 6.80426667 9.19893333 30.32426667 43.49226667 13.3728 60.42666667l-8.6816 9.168c-14.47253333 14.48533333-51.46026667-8.12693333-60.4448-13.98613334-10.62186667 6.03413333-22.05546667 10.8128-34.10986667 14.06506667-1.92426667 11.4976-10.368 51.6672-34.18986667 51.6672h-9.53813333c-20.46613333 0-32.20266667-41.53706667-34.81066667-51.95413333-11.91146667-3.3152-23.1712-8.1088-33.63413333-14.12053334-8.26773333 6.14613333-43.69813333 30.63466667-60.98346667 13.34933334l-9.19146666-7.72053334c-15.0592-15.07626667 9.9712-54.8224 14.5664-61.7792-5.80266667-10.33813333-10.44586667-21.39733333-13.65973334-33.09226666-9.984-1.5744-52.6368-9.8112-52.6368-34.3648v-9.53173334c0-21.26933333 44.7488-33.0848 52.92053334-35.05706666 3.22986667-11.58293333 7.888-22.58026667 13.69386666-32.8288-4.8032-7.536-28.88-47.10933333-13.94666666-62.0576l8.69866666-7.22666667c19.6544-19.6384 60.71466667 12.63253333 60.71466667 12.63253333l-1.90933333 2.0352a146.63786667 146.63786667 0 0 1 35.14453333-15.0432c2.0512-8.37973333 13.8496-52.80853333 35.0336-52.80853333h9.53813333c27.79733333 0 34.68266667 51.88586667 34.68266667 51.88586667l-2.544 0.04906666c12.5952 3.20533333 24.5536 8.0704 35.60533333 14.272 8.69866667-5.76426667 45.06666667-28.544 59.568-14.0192l9.66826667 9.66186667c19.38453333 19.37706667-12.14933333 59.02933333-13.024 60.13333333 5.99573333 10.48746667 10.7808 21.73866667 14.08746667 33.63306667 10.848 2.7584 51.63413333 14.45546667 51.63413333 34.73813333v9.53173334c0.00106667 26.92373333-48.54613333 34.208-51.584 34.66133333z m-143.136-118.64533333c-43.55306667 0-78.8416 35.2768-78.8416 78.82666666s35.28853333 78.8352 78.84266667 78.8352c43.52426667 0 78.81066667-35.28746667 78.81066666-78.83626666s-35.28533333-78.82666667-78.81066666-78.82666667z m314.43413333 531.57333333v51.37173333c0 50.58346667-31.93066667 80.7968-85.39413333 80.7968-53.42933333 0-85.36213333-30.2144-85.36213333-80.7968v-51.37066666h-57.85173334v51.37066666c0 50.58346667-31.89973333 80.7968-85.3632 80.7968-53.46133333 0-85.36213333-30.2144-85.36213333-80.7968v-51.37066666h-57.88373333v51.37066666c0 50.58346667-31.89866667 80.7968-85.36213334 80.7968-53.42933333 0-85.36106667-30.2144-85.36106666-80.7968v-51.37066666H100.53333333v-822.91626667h822.93333334V729.3728h-96.9728zM701.472 780.74453333c0 24.95786667 11.4496 35.07946667 39.6288 35.07946667 28.24106667 0 39.65973333-10.12053333 39.65973333-35.07946667v-137.41866666c0-24.94933333-11.41866667-35.08053333-39.65866666-35.08053334-28.1792 0-39.62986667 10.12906667-39.62986667 35.08053334v137.41866666z m-228.576 0c0 24.95786667 11.4176 35.07946667 39.62666667 35.07946667 28.21226667 0 39.66186667-10.12053333 39.66186666-35.07946667v-137.41866666c0-24.94933333-11.4496-35.08053333-39.6608-35.08053334-28.21013333 0-39.62773333 10.12906667-39.62773333 35.08053334v137.41866666z m-228.64 0c0 24.95786667 11.4496 35.07946667 39.65866667 35.07946667 28.21226667 0 39.6928-10.12053333 39.6928-35.07946667v-137.41866666c0-24.94933333-11.4816-35.08053333-39.6928-35.08053334-28.20906667 0-39.65866667 10.12906667-39.65866667 35.08053334v137.41866666z m610.64-805.728H169.10293333V546.4992h685.79413334v-571.48266667z"  horiz-adv-x="1024" />

    
    <glyph glyph-name="shebei" unicode="&#58960;" d="M947.2 793.6H76.8c-15.36 0-25.6-10.24-25.6-25.6v-768c0-15.36 10.24-25.6 25.6-25.6h870.4c15.36 0 25.6 10.24 25.6 25.6V768c0 15.36-10.24 25.6-25.6 25.6z m-25.6-51.2v-512H102.4V742.4h819.2zM102.4 25.6v153.6h819.2v-153.6H102.4zM537.6 128H179.2c-12.8 0-25.6-12.8-25.6-25.6s12.8-25.6 25.6-25.6h358.4c12.8 0 25.6 12.8 25.6 25.6s-12.8 25.6-25.6 25.6zM844.8 128h-153.6c-12.8 0-25.6-10.24-25.6-25.6 0-12.8 12.8-25.6 25.6-25.6h153.6c12.8 0 25.6 12.8 25.6 25.6 0 15.36-12.8 25.6-25.6 25.6zM179.2 435.2h102.4c10.24 0 17.92 5.12 23.04 15.36l79.36 158.72 156.16-312.32c5.12-7.68 12.8-15.36 23.04-15.36s17.92 5.12 23.04 15.36l104.96 209.92 28.16-56.32c5.12-7.68 12.8-15.36 23.04-15.36h102.4c15.36 0 25.6 10.24 25.6 25.6s-10.24 25.6-25.6 25.6h-87.04l-43.52 87.04c-7.68 17.92-38.4 17.92-46.08 0L563.2 363.52 407.04 675.84c-7.68 17.92-38.4 17.92-46.08 0L266.24 486.4H179.2c-15.36 0-25.6-10.24-25.6-25.6s10.24-25.6 25.6-25.6z"  horiz-adv-x="1024" />

    
    <glyph glyph-name="icon-test" unicode="&#58899;" d="M455.95579733 12.516465779999976H156.08247941c-60.54070045 0-109.79464533 49.250304-109.79464533 109.79221807V680.52248652c0 60.54070045 49.25394489 109.79100445 109.79464533 109.79100445 12.89966933 0 23.35751585-10.45420563 23.35751584-23.35387497s-10.45663289-23.35387497-23.35751584-23.35387497c-34.78262518 0-63.08082725-28.29698845-63.08082726-63.08325451v-558.2150163c0-34.78626608 28.29698845-63.08325452 63.08082726-63.08325452h299.87331792c12.89966933 0 23.35751585-10.45420563 23.35751585-23.35387495s-10.45663289-23.35387497-23.35751585-23.35387497zM863.18800592 12.516465779999976H737.3006317c-12.89966933 0-23.35751585 10.45420563-23.35751585 23.35387497s10.45663289 23.35387497 23.35751585 23.35387495H863.18800592c34.78262518 0 63.08082725 28.29820208 63.08082726 63.08325452V680.52248652c0 34.78626608-28.29820208 63.08325452-63.08082726 63.08325451H402.17015941c-12.89966933 0-23.35751585 10.45420563-23.35751586 23.35387497s10.45663289 23.35387497 23.35751586 23.35387497H863.18800592c60.54070045 0 109.79464533-49.250304 109.79464533-109.79100445v-558.2150163c0-60.54070045-49.25394489-109.79100445-109.79464533-109.79100444zM531.57341867 421.58368237c-12.89966933 0-23.35751585 10.45420563-23.35751585 23.35387496V594.92882963c0 22.0079597-17.90467792 39.91627852-39.91627852 39.91627852s-39.91991941-17.90831882-39.91991941-39.91627852v-43.36055941c0-12.89966933-10.45663289-23.35387497-23.35751586-23.35387497s-23.35751585 10.45420563-23.35751585 23.35387497V594.92882963c0 47.7636077 38.86406163 86.62402845 86.63373749 86.62402845 47.76724859 0 86.63131022-38.86042075 86.63131022-86.62402845v-149.9912723c0-12.90088297-10.45663289-23.35387497-23.35630222-23.35387496zM341.14036622 471.8061037c-47.76967585 0-86.63373748 38.86042075-86.63373747 86.63131022V762.01650252c0 12.89966933 10.45663289 23.35387497 23.35751584 23.35387496s23.35751585-10.45420563 23.35751586-23.35387496v-203.58030222c0-22.01524148 17.90831882-39.9235603 39.9199194-39.9235603s39.91627852 17.90831882 39.91627852 39.9235603c0 12.89966933 10.45663289 23.35387497 23.35751585 23.35387495 12.89966933 0 23.35751585-10.45420563 23.35751586-23.35387495-0.00121363-47.76967585-38.86527525-86.63009659-86.63252386-86.6300966zM733.35390815 249.23613866999995H459.90494815c-12.89966933 0-23.35751585 10.45420563-23.35751585 23.35387496s10.45663289 23.35387497 23.35751585 23.35387496H733.35390815c12.89966933 0 23.35751585-10.45420563 23.35751585-23.35387496s-10.45663289-23.35387497-23.35751585-23.35387496zM596.63003497 249.23613866999995c-12.89966933 0-23.35751585 10.45420563-23.35751586 23.35387496V424.76946015c0 12.89966933 10.45663289 23.35387497 23.35751586 23.35387496s23.35751585-10.45420563 23.35751585-23.35387496V272.5888c0-12.89966933-10.45784652-23.35266133-23.35751585-23.35266133zM596.63003497-93.52806399999997c-90.44453452 0-164.03053985 73.58236445-164.03053986 164.03053985V300.74500740999997c0 90.44210725 73.58600533 164.0244717 164.03053986 164.0244717S760.66057482 391.18711467 760.66057482 300.74500740999997v-230.24253156c0-90.44817541-73.58600533-164.03053985-164.03053985-164.03053985z m0 511.58979318c-64.69010015 0-117.31672178-52.63026252-117.31672179-117.31672177v-230.24253156c0-64.69252741 52.62662163-117.32278992 117.31672179-117.32278993s117.31672178 52.63026252 117.31672178 117.32278993V300.74500740999997c0 64.68767289-52.62662163 117.31672178-117.31672178 117.31672177z"  horiz-adv-x="1024" />

    
    <glyph glyph-name="zhuangtai3" unicode="&#58966;" d="M954.88 658.432c0 60.416-56.832 109.568-126.464 109.568H195.584c-70.144 0-126.464-49.152-126.464-109.568v-548.352c0-60.416 56.832-109.568 126.464-109.568h632.832c70.144 0 126.464 49.152 126.464 109.568V658.432z m-803.84 28.16c11.776 10.24 28.16 16.384 45.056 15.872h632.832c34.816 0 63.488-14.336 63.488-44.544v-246.784h-50.176l-54.272 47.104c-12.288 10.752-32.256 10.752-44.544 0-3.584-3.072-6.144-6.656-7.68-10.752l-38.912-101.888L604.16 505.856c-7.68 13.312-26.624 18.944-42.496 12.288-7.168-3.072-12.288-8.192-15.36-14.336l-92.16-199.68-101.376 307.2c-4.608 14.336-22.528 23.04-38.912 18.944-8.704-2.048-15.872-7.168-19.456-14.336l-117.76-204.288H133.12V648.192c-1.024 14.336 6.144 28.16 17.92 38.4z m725.504-611.84c-7.68-7.68-31.232-9.728-48.128-9.728H195.584c-16.896 0-32.768 5.632-45.056 15.872s-18.432 24.064-18.432 38.912v236.544h63.488c11.776 0 23.04 5.632 28.16 15.36l90.112 156.16 104.448-316.416c3.584-11.264 15.36-19.456 28.672-19.968h1.536c12.8 0 24.576 6.656 29.184 17.408L578.56 427.008l95.232-164.864c7.68-13.312 26.624-18.944 42.496-12.288 7.68 3.072 13.312 8.704 15.872 15.872l47.104 122.368 27.136-23.552c6.144-5.12 13.824-8.192 22.528-8.192h62.976v-236.544c0-14.336-9.728-40.448-14.336-44.544l-1.024-0.512z"  horiz-adv-x="1024" />

    
    <glyph glyph-name="danweiguanli" unicode="&#58901;" d="M199.365022 86.17662699000005H398.222556V247.84499599000003c-23.053482 5.509876-39.763107 19.824555-39.763107 37.098166 0 17.249613 16.709625 31.565291 39.763107 37.075168V483.68669799H199.365022v-397.511071z m477.329279 309.225054a256.231245 256.231245 0 0 0 39.762107 15.669648V543.34135899h113.913441l-412.232741 292.743424L5.882368 543.34035899h113.890442v-457.164732h39.807106V523.4498049900001h517.114385v-128.048124zM962.662878 194.55719298999998a177.971003 177.971003 0 0 1-27.749377 60.128649l31.091302 51.910834-27.502383 27.59238-53.715793-32.289274a173.974092 173.974092 0 0 1-56.53873 22.421496l-15.534651 62.003607h-38.905126l-15.534652-62.003607a170.339174 170.339174 0 0 1-56.08674-22.669491l-54.190783 32.537269-27.501382-27.59238 31.249298-52.135829a175.939048 175.939048 0 0 1-27.975371-59.948653l-55.364757-13.84069v-38.995124l51.412845-12.869711a175.578056 175.578056 0 0 1 26.124414-70.606414l-25.446429-42.472046 27.501382-27.569381 40.52909 24.340454c21.586515-16.189636 46.672952-27.930373 74.332331-32.785264l10.950754-43.714018h38.905126l10.949754 43.759017a175.306062 175.306062 0 0 1 74.196333 32.785264l40.621088-24.408452 27.501382 27.569381-25.627424 42.811038c13.321701 20.93153 22.895486 44.527 26.349408 70.267422l51.368846 12.869711v38.995124l-55.409755 13.909688zM793.293682 54.90332898999998a97.429812 97.429812 0 0 0-97.339814 97.475811c0 53.828791 43.578021 97.452811 97.339814 97.452811s97.361813-43.64602 97.361813-97.452811a97.452811 97.452811 0 0 0-97.361813-97.475811zM636.887195 371.10622699V483.68669799H438.007662v-161.668368c23.053482-5.509876 39.739107-19.824555 39.739107-37.075168s-16.685625-31.58929-39.739107-37.099166v-161.667369h104.835645c-7.13484 23.933462-12.192726 48.770905-12.192726 75.031315 0 86.163065 42.133054 162.006361 106.236614 209.898285z"  horiz-adv-x="1024" />

    
    <glyph glyph-name="wenjiandaochu" unicode="&#59043;" d="M767.04426667 595.21706667l0-109.9776 125.88373333 191.14666666L767.04426667 861.86666667l0-104.37973334c0 0-392.53333333 45.6704-443.8016-394.37653333l27.0336 0C509.67893333 669.8325333299999 767.04426667 595.21706667 767.04426667 595.21706667zM796.8768 244.66773333000003c-3.75466667 12.0832-21.36746667 22.3232-38.22933333 22.3232L145.13493333 266.99093332999996c-16.7936 0-27.98933333-10.24-23.3472-22.3232l102.6048-315.1872C228.1472-83.62666666999996 244.87253333-93.86666666999997 261.66613333-93.86666666999997l614.4 0c16.7936 0 27.0336 10.24 23.3472 23.3472L796.8768 244.66773333000003zM855.58613333 462.77973333l-160.3584 0c-35.49866667 1.8432-55.9104-55.02293333-66.21866666-99.7376L350.27626667 363.04213332999996C342.8352 349.04746666999995 336.2816 334.16533332999995 328.84053333 318.25919999999996 324.1984 308.08746667 322.28693333 350.95893333000004 323.24266667 362.15466667L323.24266667 363.04213332999996 258.8672 363.04213332999996c-16.7936 0-30.72-13.99466667-30.72-30.78826666l0-34.47466667 530.50026667 0c14.9504 0 27.92106667-4.64213333 39.1168-11.19573333 12.15146667-7.44106667 22.39146667-16.7936 27.98933333-32.69973334l77.4144-237.70453333L903.168 393.8304C903.168 393.8304 900.36906667 462.77973333 855.58613333 462.77973333z"  horiz-adv-x="1024" />

    
    <glyph glyph-name="huijihesuan" unicode="&#58896;" d="M931.4304 501.9648L931.4304 501.9648c-28.39893333 30.58346667-69.90506667 48.05973333-111.4112 48.05973333-4.36906667 0-8.73813333 0-10.92266667 0L809.09653333 737.8944c0 19.6608-17.47626667 37.13706667-37.13706666 37.13706667L81.64693333 775.03146667c-19.6608 0-37.13706667-17.47626667-37.13706666-37.13706667l0-690.31253333c0-19.6608 17.47626667-37.13706667 37.13706666-37.13706667l690.31253334 0c19.6608 0 37.13706667 17.47626667 37.13706666 37.13706667l0 187.86986666c4.36906667 0 6.5536 0 10.92266667 0 43.69066667 0 83.01226667 17.47626667 111.4112 45.8752 28.39893333 28.39893333 45.8752 67.72053333 45.8752 111.4112C977.3056 436.4288 959.82933333 473.56586667 931.4304 501.9648zM444.27946667 729.15626667l305.83466666 0 0-194.42346667c-15.29173333-8.73813333-28.39893333-17.47626667-41.50613333-30.58346667-21.84533333-21.84533333-37.13706667-48.05973333-43.69066667-80.82773333L444.27946667 423.3216 444.27946667 729.15626667zM409.32693333 82.5344l-305.83466666 0 0 305.83466667 305.83466666 0L409.32693333 82.5344zM409.32693333 423.3216l-305.83466666 0 0 305.83466667 305.83466666 0L409.32693333 423.3216zM750.11413333 82.5344l-305.83466666 0 0 305.83466667 218.45333333 0c2.18453333-41.50613333 19.6608-78.6432 45.8752-107.04213334 10.92266667-10.92266667 26.2144-21.84533333 41.50613333-28.39893333L750.11413333 82.5344zM820.0192 281.32693333c-61.16693333 0-111.4112 50.24426667-111.4112 111.4112 0 61.16693333 50.24426667 111.4112 111.4112 111.4112s111.4112-50.24426667 111.4112-111.4112C931.4304 331.5712 881.18613333 281.32693333 820.0192 281.32693333zM872.448 438.61333333L872.448 438.61333333c4.36906667 4.36906667 13.1072 4.36906667 19.6608 0 4.36906667-4.36906667 4.36906667-13.1072 0-19.6608l-85.1968-85.1968c-4.36906667-6.5536-13.1072-6.5536-19.6608 0l0 0-39.3216 39.3216c-4.36906667 4.36906667-4.36906667 13.1072 0 19.6608 6.5536 4.36906667 13.1072 4.36906667 19.6608 0L795.98933333 362.15466667 872.448 438.61333333 872.448 438.61333333zM286.99306667 296.61866667000004L286.99306667 296.61866667000004c6.5536 6.5536 17.47626667 6.5536 24.02986666 0 6.5536-6.5536 6.5536-17.47626667 0-24.02986667L271.70133333 231.08266666999998l41.50613334-41.50613334c6.5536-6.5536 6.5536-17.47626667 0-24.02986666-6.5536-6.5536-17.47626667-6.5536-24.02986667 0l-41.50613333 41.50613333-41.50613334-41.50613333c-6.5536-6.5536-17.47626667-6.5536-24.02986666 0-6.5536 6.5536-6.5536 17.47626667 0 24.02986666l41.50613333 41.50613334-41.50613333 41.50613333c-6.5536 6.5536-6.5536 17.47626667 0 24.02986667 6.5536 6.5536 17.47626667 6.5536 24.02986666 0l41.50613334-41.50613334L286.99306667 296.61866667000004 286.99306667 296.61866667000004zM228.01066667 659.2512L228.01066667 659.2512c0 8.73813333 8.73813333 17.47626667 17.47626666 17.47626667 8.73813333 0 17.47626667-8.73813333 17.47626667-17.47626667l0-58.9824 58.9824 0c8.73813333 0 17.47626667-6.5536 17.47626667-17.47626667 0-8.73813333-8.73813333-17.47626667-17.47626667-17.47626666l-58.9824 0 0-58.9824c0-10.92266667-8.73813333-17.47626667-17.47626667-17.47626667-10.92266667 0-17.47626667 8.73813333-17.47626666 17.47626667l0 58.9824L169.02826667 565.31626667c-10.92266667 0-17.47626667 8.73813333-17.47626667 17.47626666 0 10.92266667 8.73813333 17.47626667 17.47626667 17.47626667L228.01066667 600.2688 228.01066667 659.2512 228.01066667 659.2512zM675.84 213.6064L675.84 213.6064c8.73813333 0 17.47626667-8.73813333 17.47626667-17.47626667 0-8.73813333-8.73813333-17.47626667-17.47626667-17.47626666-128.88746667 0-24.02986667 0-152.91733333 0-8.73813333 0-17.47626667 8.73813333-17.47626667 17.47626666 0 8.73813333 6.5536 17.47626667 17.47626667 17.47626667C649.6256 213.6064 546.95253333 213.6064 675.84 213.6064L675.84 213.6064zM675.84 283.51146667L675.84 283.51146667c8.73813333 0 17.47626667-8.73813333 17.47626667-17.47626667 0-8.73813333-8.73813333-17.47626667-17.47626667-17.47626667-128.88746667 0-24.02986667 0-152.91733333 0-8.73813333 0-17.47626667 8.73813333-17.47626667 17.47626667 0 10.92266667 6.5536 17.47626667 17.47626667 17.47626667C649.6256 283.51146667 546.95253333 283.51146667 675.84 283.51146667L675.84 283.51146667zM675.84 600.2688L675.84 600.2688c8.73813333 0 17.47626667-6.5536 17.47626667-17.47626667 0-8.73813333-8.73813333-17.47626667-17.47626667-17.47626666-128.88746667 0-24.02986667 0-152.91733333 0-8.73813333 0-17.47626667 8.73813333-17.47626667 17.47626666 0 10.92266667 6.5536 17.47626667 17.47626667 17.47626667C649.6256 600.2688 546.95253333 600.2688 675.84 600.2688L675.84 600.2688z"  horiz-adv-x="1024" />

    
    <glyph glyph-name="icon_huabanfuben" unicode="&#58918;" d="M706.18074112 487.56306147m-32.36345742 0a32.36345629 32.36345629 0 1 1 64.72691371 0 32.36345629 32.36345629 0 1 1-64.72691371 0ZM706.18074112 284.75206542m-32.36345742 0a32.36345629 32.36345629 0 1 1 64.72691371 0 32.36345629 32.36345629 0 1 1-64.72691371 0ZM706.18074112 89.49254370999995m-32.36345742 0a32.36345629 32.36345629 0 1 1 64.72691371 0 32.36345629 32.36345629 0 1 1-64.72691371 0ZM511.8921216 555.74207715c-93.85402482 0-182.52989667 11.65084445-249.52225109 32.90284829-96.87461433 30.6374053-117.26359211 71.19960519-117.26359211 99.7873243s20.38897778 69.04204061 117.26359211 99.78732544c66.99235555 21.14412544 155.56034901 32.90284829 249.52225109 32.90284829s182.52989667-11.65084445 249.52225223-32.90284829c96.87461433-30.6374053 117.26359211-71.19960519 117.26359211-99.78732544s-20.38897778-69.04204061-117.26359211-99.7873243c-66.99235555-21.25200384-155.66822741-32.90284829-249.52225223-32.90284829z m0 216.61940395c-89.10738432 0-172.49722482-10.89569678-234.85081827-30.63740529-57.2833189-18.12353593-83.3898405-40.45432149-83.3898405-53.39970333s26.1065216-35.38404579 83.3898405-53.39970446c62.35359346-19.74170851 145.85131235-30.6374053 234.85081827-30.6374053s172.49722482 10.89569678 234.85081827 30.6374053c57.2833189 18.12353593 83.3898405 40.45432149 83.3898405 53.39970446s-26.1065216 35.38404579-83.3898405 53.39970333C684.38934642 761.46578432 600.89162752 772.3614811 511.8921216 772.3614811zM511.8921216 145.80495814999995c-93.85402482 0-182.52989667 11.65084445-249.52225109 32.90284715-96.87461433 30.6374053-117.26359211 71.19960519-117.26359211 99.78732544h48.54518443c0-13.05326137 26.1065216-35.38404579 83.3898405-53.39970333 62.35359346-19.74170851 145.85131235-30.6374053 234.85081827-30.63740643s172.49722482 10.89569678 234.85081827 30.63740643c57.2833189 18.12353593 83.3898405 40.45432149 83.3898405 53.39970333h48.54518557c0-28.58772025-20.38897778-69.04204061-117.26359211-99.78732544-66.99235555-21.25200384-155.66822741-32.90284829-249.52225223-32.90284715zM511.8921216 344.40870457000005c-93.85402482 0-182.52989667 11.65084445-249.52225109 32.90284714-96.87461433 30.6374053-117.26359211 71.19960519-117.26359211 99.78732544h48.54518443c0-13.05326137 26.1065216-35.38404579 83.3898405-53.39970332 62.35359346-19.74170851 145.85131235-30.6374053 234.85081827-30.63740644 89.10738432 0 172.49722482 10.89569678 234.85081827 30.63740644 57.2833189 18.12353593 83.3898405 40.45432149 83.3898405 53.39970332h48.54518557c0-28.58772025-20.38897778-69.04204061-117.26359211-99.78732544-66.99235555-21.25200384-155.66822741-32.90284829-249.52225223-32.90284714zM511.8921216-52.90666667000005c-93.85402482 0-182.52989667 11.65084445-249.52225109 32.90284829-96.87461433 30.6374053-117.26359211 71.19960519-117.26359211 99.7873243h48.54518443c0-13.05326137 26.1065216-35.38404579 83.3898405-53.39970333C339.39489678 6.534215679999988 422.78473728-4.361481099999992 511.8921216-4.361481099999992s172.49722482 10.89569678 234.85081827 30.63740529c57.2833189 18.12353593 83.3898405 40.45432149 83.3898405 53.39970333h48.54518557c0-28.58772025-20.38897778-69.04204061-117.26359211-99.7873243-66.99235555-21.14412544-155.66822741-32.79496989-249.52225223-32.79496989zM145.1062784 688.32437248h48.54518443v-608.64874496h-48.54518443zM830.13278037 688.32437248h48.54518557v-608.64874496h-48.54518557z"  horiz-adv-x="1024" />

    
    <glyph glyph-name="yueduchengbenhesuan" unicode="&#58919;" d="M292.40888889 528.49777778h350.43555556c14.44977778 0 26.16888889 11.71911111 26.16888888 26.16888889s-11.71911111 26.16888889-26.16888888 26.16888888H292.40888889c-14.44977778 0-26.16888889-11.71911111-26.16888889-26.16888888s11.71911111-26.16888889 26.16888889-26.16888889zM560.92444445 410.16888889H292.40888889c-14.44977778 0-26.16888889-11.71911111-26.16888889-26.16888889s11.71911111-26.16888889 26.16888889-26.16888889h268.51555556c14.44977778 0 26.16888889 11.71911111 26.16888888 26.16888889s-11.71911111 26.16888889-26.16888888 26.16888889zM292.40888889 239.50222222000002c-14.44977778 0-26.16888889-11.71911111-26.16888889-26.16888889s11.71911111-26.16888889 26.16888889-26.16888888h175.21777778c14.44977778 0 26.16888889 11.71911111 26.16888888 26.16888888s-11.71911111 26.16888889-26.16888888 26.16888889H292.40888889zM839.68 801.56444445H184.32c-34.47466667 0-62.57777778-27.30666667-62.57777778-60.9848889v-713.1591111c0-33.56444445 28.10311111-60.98488889 62.57777778-60.9848889h327.68c14.44977778 0 26.16888889 11.71911111 26.16888889 26.1688889s-11.71911111 26.16888889-26.16888889 26.16888888H184.32c-5.68888889 0-10.24 3.86844445-10.24 8.64711112V740.57955555c0 4.77866667 4.55111111 8.64711111 10.24 8.64711112h655.36c5.68888889 0 10.24-3.86844445 10.24-8.64711112V384c0-14.44977778 11.71911111-26.16888889 26.16888889-26.16888889s26.16888889 11.71911111 26.16888889 26.16888889V740.57955555c0 33.67822222-28.10311111 60.98488889-62.57777778 60.9848889zM851.85422222 302.42133333000004L762.31111111 212.76444445000004l-89.54311111 89.5431111c-10.24 10.24-26.73777778 10.24-36.97777778 0s-10.24-26.73777778 0-36.97777777l89.54311111-89.54311111H674.70222222c-14.44977778 0-26.16888889-11.71911111-26.16888889-26.16888889s11.71911111-26.16888889 26.16888889-26.16888889h61.44v-31.85777778h-61.44c-14.44977778 0-26.16888889-11.71911111-26.16888889-26.16888889s11.71911111-26.16888889 26.16888889-26.16888889h61.44v-61.44c0-14.44977778 11.71911111-26.16888889 26.16888889-26.16888888s26.16888889 11.71911111 26.16888889 26.16888888v61.44h61.44c14.44977778 0 26.16888889 11.71911111 26.16888889 26.16888889s-11.71911111 26.16888889-26.16888889 26.16888889h-61.44v31.85777778h61.44c14.44977778 0 26.16888889 11.71911111 26.16888889 26.16888889s-11.71911111 26.16888889-26.16888889 26.16888889h-50.63111111l89.54311111 89.54311111c10.24 10.24 10.24 26.73777778 0 36.97777777-10.12622222 10.24-26.73777778 10.24-36.97777778 0.11377778z"  horiz-adv-x="1024" />

    
    <glyph glyph-name="zongdailizhanghao" unicode="&#58900;" d="M484.32924445 365.91691851999997c-133.62062222 0-242.24047408 108.74121482-242.24047408 242.4832s108.74121482 242.4832 242.24047408 242.4832c133.62062222 0 242.24047408-108.74121482 242.24047407-242.4832s-108.61985185-242.4832-242.24047407-242.4832z m0 424.28491851c-100.12444445 0-181.55899259-81.55591111-181.5589926-181.80171851 0-100.24580741 81.43454815-181.80171852 181.5589926-181.80171852s181.55899259 81.55591111 181.55899258 181.80171852c0 100.24580741-81.43454815 181.80171852-181.55899258 181.80171851zM489.0624-80.82014815000002H46.45167408v30.34074074c0 126.8242963 45.26838518 246.24545185 127.30974814 336.29677038 40.17114075 44.05475555 87.01724445 78.6432 139.20331853 102.79442962 54.24924445 25.12213333 111.89665185 37.86524445 171.3645037 37.86524444v-60.68148148c-100.24580741 0-194.66619259-42.96248889-265.7848889-120.8775111-65.29327408-71.60414815-104.00805925-164.68954075-110.4402963-265.05671112h381.07970372v-60.68148148zM744.04598518-78.87834075c-128.15928889 0-232.53143703 104.25078518-232.53143703 232.53143705s104.25078518 232.53143703 232.53143703 232.53143703 232.53143703-104.25078518 232.53143704-232.53143703-104.37214815-232.53143703-232.53143704-232.53143705z m0 404.3813926c-94.78447408 0-171.84995555-77.06548148-171.84995555-171.84995555s77.06548148-171.84995555 171.84995555-171.84995555 171.84995555 77.06548148 171.84995557 171.84995555-77.18684445 171.84995555-171.84995557 171.84995555zM695.62216297 198.80011851999996V96.36977778000005c0-11.28675555 0.24272592-22.81623703 0.84954073-34.70980741h-16.99081481c0.48545185 11.77220741 0.84954075 23.42305185 0.84954074 34.70980741v73.30322963c-8.00995555-12.86447408-14.80628148-22.57351111-20.14625185-29.00574816-3.2768 4.2477037-7.28177778 8.37404445-12.1362963 12.1362963 8.61677037 8.00995555 17.47626667 20.99579259 26.57848889 38.7147852 9.10222222 17.71899259 15.89854815 36.77297778 20.14625185 57.16195555 8.00995555-3.76225185 14.19946667-6.18951111 18.56853333-7.28177778-3.15543703-5.33997037-9.10222222-19.53943703-17.71899258-42.5984z m46.72474073 46.72474073c3.2768-0.48545185 9.34494815-1.33499259 18.56853333-2.42725925-1.09226667-6.43223703-0.24272592-27.67075555 2.42725927-63.71555555 25.72894815 4.85451852 45.63247408 9.34494815 59.58921481 13.7140148l4.00497778-15.29173333c-5.94678518-0.48545185-26.57848889-4.61179259-62.01647407-12.13629629 6.43223703-33.86026667 16.01991111-57.16195555 28.64165926-70.1477926 12.62174815-12.86447408 19.90352592-16.384 21.72397037-10.43721481s3.03407408 12.37902222 3.64088888 19.29671111c5.94678518-3.76225185 11.77220741-6.18951111 17.71899259-7.28177778-3.76225185-15.04900741-7.40314075-25.00077037-10.92266667-29.85528888-3.51952592-4.85451852-9.95176297-5.5826963-19.2967111-2.42725926-9.46631111 3.2768-19.6608 11.77220741-30.58346667 25.72894814-11.04402963 13.95674075-20.02488889 37.86524445-26.94257778 71.72551112-20.38897778-4.2477037-33.01072592-7.28177778-37.86524445-8.8594963l-4.8545185 15.29173333c8.61677037 1.09226667 22.33078518 3.51952592 41.14204443 7.28177778-2.79134815 35.0738963-4.36906667 58.25422222-4.97588148 69.54097777z m70.1477926-33.86026666c-4.85451852-3.2768-9.70903703-6.67496297-14.56355555-10.43721481-4.85451852 9.10222222-11.04402963 18.20444445-18.56853334 27.42802963 4.2477037 2.66998518 8.61677037 5.94678518 12.86447407 9.70903704 9.8304-11.89357037 16.50536297-20.75306667 20.26761482-26.69985186zM702.78257778 55.71318517999998h-29.61256296l0.24272593 6.31087407c0.48545185 11.89357037 0.84954075 23.42305185 0.84954073 34.34571853v53.03561481c-3.51952592-4.97588148-6.67496297-9.22358518-9.46631111-12.50038518l-4.85451852-5.94678519-4.6117926 6.18951111c-2.91271111 3.88361482-6.5536 7.5245037-10.92266666 10.92266667l-5.58269629 4.36906667 5.2186074 4.85451851c8.00995555 7.5245037 16.62672592 20.02488889 25.36485927 37.01570371 8.8594963 17.11217778 15.4130963 35.92343703 19.6608 55.7056l1.57771851 7.5245037 6.91768889-3.2768c7.64586667-3.64088889 13.59265185-5.94678518 17.47626666-6.91768889l8.00995556-1.9418074-4.2477037-7.03905185c-2.06317037-3.39816297-6.67496297-13.34992592-16.86945186-40.6565926v-23.18032593l3.64088889 0.48545186c7.5245037 0.9709037 19.41807408 3.03407408 35.43798519 6.18951111-2.42725925 31.7970963-3.88361482 53.3997037-4.49042963 64.07964444l-0.36408889 7.5245037 7.40314074-1.21362962c3.15543703-0.48545185 9.22358518-1.33499259 18.20444445-2.42725926l6.31087407-0.72817778-1.09226667-6.31087407c-0.60681482-3.88361482-0.84954075-16.74808889 1.94180741-55.46287408 9.95176297 1.94180741 18.93262222 3.76225185 26.94257778 5.5826963l-3.15543704 6.06814815c-4.61179259 8.73813333-10.55857778 17.59762963-17.84035555 26.33576296l-4.36906667 5.33997037 5.82542222 3.64088889c4.00497778 2.54862222 8.00995555 5.5826963 12.1362963 9.10222222l4.73315555 4.12634074 4.00497779-4.85451852c9.70903703-11.89357037 16.62672592-21.11715555 20.51034073-27.1853037l3.15543705-4.97588148-4.9758815-3.2768c-4.61179259-3.03407408-9.34494815-6.5536-14.19946666-10.1944889l-4.97588148-3.8836148c9.58767408 2.18453333 17.84035555 4.36906667 24.51531852 6.43223703l6.06814815 1.82044444 7.5245037-28.39893333-7.16041481-0.60681481c-5.33997037-0.48545185-24.02986667-4.12634075-55.46287408-10.8013037 6.18951111-29.36983703 14.80628148-50.00154075 25.85031111-61.16693333 6.5536-6.67496297 10.31585185-9.46631111 12.25765927-10.55857778 1.33499259 4.85451852 2.3058963 10.07312592 2.66998518 15.65582221l0.72817777 10.07312593 8.49540741-5.46133333c5.21860741-3.2768 10.43721482-5.46133333 15.53445926-6.43223703l6.43223704-1.21362964-1.57771852-6.31087408c-4.00497778-15.89854815-7.88859259-26.33576297-11.89357036-31.91845925-3.64088889-4.97588148-11.04402963-9.8304-26.2144-4.6117926-10.67994075 3.64088889-21.60260741 12.74311111-33.37481483 27.79211852-11.04402963 13.95674075-19.90352592 36.40888889-26.94257777 68.32734815-16.74808889-3.51952592-27.1853037-6.06814815-31.31164445-7.40314074l-5.82542222-1.94180741-5.33997037 16.86945185V96.36977778000005c0-11.28675555 0.24272592-22.81623703 0.84954074-34.34571853l0.24272593-6.31087407z m-16.99081481 12.1362963h4.2477037c-0.36408889 9.58767408-0.60681482 19.17534815-0.60681482 28.64165927v103.40124443l0.3640889 0.97090371c6.43223703 17.11217778 11.28675555 29.36983703 14.80628147 37.0157037-1.69908148 0.60681482-3.64088889 1.45635555-5.5826963 2.3058963-4.36906667-18.20444445-10.8013037-35.43798518-19.05398517-51.4578963-7.88859259-15.29173333-15.53445925-27.06394075-23.05896297-35.43798518 1.09226667-0.9709037 2.06317037-1.94180741 3.03407407-2.91271111 4.36906667 5.82542222 9.46631111 13.47128889 15.17037037 22.69487407l11.1653926 17.96171852v-94.66311111c0.12136297-9.10222222-0.12136297-18.6898963-0.48545185-28.5202963z m67.72053333 101.82352593l1.21362962-5.94678519c6.79632592-32.768 15.4130963-56.06968889 25.85031111-69.17688889 10.19448889-12.98583703 19.53943703-20.99579259 27.79211852-23.78714074 4.49042963-1.57771852 10.31585185-2.79134815 12.5003852 0.24272593 1.82044445 2.54862222 4.73315555 8.37404445 8.37404443 21.84533333-1.82044445 0.60681482-3.64088889 1.21362963-5.33997036 2.06317037-0.72817778-4.12634075-1.57771852-8.00995555-2.79134815-11.65084444-1.57771852-4.85451852-4.97588148-6.31087408-6.91768889-6.79632593-6.06814815-1.45635555-13.22856297 2.91271111-25.00077037 14.80628148-13.59265185 13.83537778-23.54441482 37.86524445-30.21937778 73.18186667l-1.09226666 5.82542222 5.82542221 1.21362963c27.30666667 5.82542222 45.75383703 9.46631111 55.7056 11.1653926l-0.72817777 2.66998518c-13.59265185-3.88361482-31.7970963-7.88859259-54.24924444-12.1362963l-6.67496297-1.21362963-0.48545185 6.79632593c-2.66998518 34.95253333-3.03407408 50.85108148-2.91271112 58.73967407-2.06317037 0.24272592-3.88361482 0.48545185-5.58269628 0.72817778 0.72817778-12.74311111 2.18453333-33.49617778 4.36906666-61.77374815l0.36408889-5.33997036-5.21860741-1.09226667c-14.32082963-2.91271111-25.85031111-4.97588148-34.34571852-6.31087408l0.84954074-2.91271111c6.67496297 1.69908148 17.47626667 4.12634075 32.64663704 7.40314074l6.06814815 1.45635556z m34.83117037 57.52604444c4.36906667-5.70405925 8.25268148-11.40811852 11.65084444-16.99081482 1.45635555 1.09226667 2.79134815 2.06317037 4.24770371 3.03407408-3.15543703 4.36906667-7.28177778 9.8304-12.62174815 16.384-1.21362963-0.84954075-2.3058963-1.57771852-3.2768-2.42725926z"  horiz-adv-x="1024" />

    
    <glyph glyph-name="xiugai-copy" unicode="&#58890;" d="M932.981 251.462c-16.379 0-35.29-13.401-35.29-29.78v-120.165c0-57.030-46.011-103.189-102.594-103.189h-569.106c-56.732 0-102.594 46.159-102.594 103.189v567.914c0 57.030 45.862 103.189 102.594 103.189h252.091c16.379 0 29.632-1.489 29.632 14.89s-13.252 44.67-29.632 44.67h-295.87c-65.368 0-118.377-53.307-118.377-119.122v-655.171c0-65.815 53.009-119.122 118.377-119.122h656.66c65.368 0 118.377 53.307 118.377 119.122v163.793c0.001 16.379-7.891 29.78-24.27 29.78zM247.731 153.037c-4.765-32.46 17.422-54.2 49.584-48.245l188.808 34.099-209.208 210.549-29.185-196.403zM639.643 615.976c23.229 23.377 60.603 23.377 83.832 0l41.842-41.99c23.080-23.377 23.080-61.050 0-84.278l-188.363-189.554c-23.080-23.229-60.603-23.229-83.683 0l-41.842 42.14c-23.080 23.229-23.080 60.901 0 84.278l188.214 189.405zM535.113 173.736l355.728 358.11-209.208 210.548-355.728-357.962 209.208-210.697zM935.809 591.406c34.694 34.844 24.42 81.152-10.274 115.995l-83.683 84.279c-34.694 34.844-90.831 34.844-125.525 0l209.208-210.548 10.274 10.274z"  horiz-adv-x="1024" />

    
    <glyph glyph-name="renyuan" unicode="&#59366;" d="M372.536668 368.376161c0 0-0.025583 0.025583-0.025583 0.050142 0 0.036839 0.025583 0.064468 0.025583 0.090051 0 11.374048-9.441023 20.60427-21.118993 20.60427-76.603679 0-138.912793 64.965617-138.912793 144.841829 0 79.859839 62.309114 144.844899 138.912793 144.844899 11.67797 0 21.118993 9.216919 21.118993 20.603247 0 11.388375-9.441023 20.603247-21.118993 20.603247-99.883895 0-181.145663-83.463923-181.145663-186.051393 0-68.421322 36.245506-128.181381 89.963964-160.503531C146.127102 334.086194 63.582107 223.197664 63.582107 92.630956c0-11.388375 9.44307-20.603247 21.123087-20.603247 11.668761 0 21.11183 9.214872 21.11183 20.603247 0 140.684136 110.169145 255.115352 245.600651 255.115352C363.095645 347.746308 372.536668 356.949924 372.536668 368.376161zM701.996239 359.210407c68.468394 36.663014 115.049293 107.536178 115.049293 188.988282 0 119.013581-99.207489 215.821417-221.144656 215.821417-121.946376 0-221.138516-96.80886-221.138516-215.821417 0-82.259492 47.438429-153.865343 117.007901-190.259228C346.96527 314.422342 241.414305 182.670645 241.414305 27.277506c0-11.386328 9.44307-20.618597 21.113877-20.618597 11.664667 0 21.107737 9.232269 21.107737 20.618597 0 168.014598 140.103922 304.731376 310.704414 304.795844 1.432629-0.14224 2.771113 0.177032 4.134157 0.357134 1.919722-0.357134 3.876284-0.561795 5.9055-0.357134 170.786735-0.064468 311.035966-136.780223 311.035966-304.795844 0-11.386328 9.454326-20.618597 21.13639-20.618597 11.694343 0 21.135366 9.232269 21.135366 20.618597C957.686688 184.456315 849.514013 317.24462 701.996239 359.210407zM595.900875 373.625722c-98.662067 0-178.917926 78.320787-178.917926 174.572968 0 96.296183 80.255859 174.615946 178.917926 174.615946 98.651834 0 178.909739-78.320787 178.909739-174.615946C774.810614 451.945485 694.552709 373.625722 595.900875 373.625722z"  horiz-adv-x="1024" />

    
    <glyph glyph-name="yuangongruzhi" unicode="&#58958;" d="M119.132129 75.901643V632.638265c0 7.315661 5.962084 13.26341 13.277745 13.26341h276.73675c6.885629-47.351625 47.744797-83.849041 96.974226-83.849041s90.099861 36.497416 96.987538 83.849041H888.336218c7.30235 0 13.26341-5.94775 13.263411-13.26341V305.542739h56.008575V632.638265c0 38.190923-31.067752 69.271986-69.271986 69.271985H604.136369V772.086326c0 15.465788-12.525189 28.004288-28.004288 28.004288H436.12293c-15.464764 0-28.004288-12.5385-28.004287-28.004288v-70.175052H132.409874c-38.205257 0-69.28632-31.081063-69.28632-69.271986v-556.736621c0-38.190923 31.081063-69.271986 69.28632-69.271986h450.667221v56.008575H132.409874c-7.315661-0.001024-13.277745 5.946726-13.277745 13.262387z m344.995089 668.180396h83.999552v-84.012863c0-23.163358-18.842562-42.006943-42.006943-42.006943s-41.992609 18.842562-41.992609 42.006943v84.012863zM174.689171 233.372134v-52.043067c0-15.464764 12.539524-28.004288 28.004287-28.004287H546.512103c15.479098 0 28.004288 12.539524 28.004287 28.004287v52.043067a28.001216 28.001216 0 0 1-15.479098 25.050379L455.826579 310.000736l26.691667 38.833923a28.060601 28.060601 0 0 1 4.922841 15.862031v81.975331c0 60.862815-48.638648 108.544131-110.745485 108.544131-62.093526 0-110.745485-47.681316-110.745484-108.544131v-81.975331a27.987905 27.987905 0 0 1 5.181883-16.23063l27.197466-38.246213-107.737309-51.591533a27.99712 27.99712 0 0 1-15.902987-25.25618z m56.009599-17.639496l121.835186 58.347129a27.984834 27.984834 0 0 1 15.014255 18.241541 28.045243 28.045243 0 0 1-4.293152 23.245269l-41.295342 58.073751v73.032717c0 29.454109 24.03878 52.535556 54.736909 52.535556s54.736909-23.081447 54.736909-52.535556v-73.279473l-39.996032-58.196618a28.040124 28.040124 0 0 1-4.034108-22.862335 27.987905 27.987905 0 0 1 14.590366-18.050075l116.516102-58.224263v-6.72795H230.69877v6.400307zM948.173101 228.257827c-11.567856 10.173325-29.316909 9.106436-39.517878-2.543331L762.097301 59.083303l-101.050314 77.258291c-12.279457 9.379813-29.837042 7.042283-39.272146-5.237174-9.379813-12.292767-7.027949-29.863663 5.250484-39.257811l121.835187-93.133633a27.912138 27.912138 0 0 1 17.01083-5.756283 27.935687 27.935687 0 0 1 21.030605 9.517014L950.716432 188.727663c10.200969 11.621098 9.078791 29.315885-2.543331 39.530164zM737.155455 303.792919c15.479098 0 28.004288 12.539524 28.004287 28.004288s-12.525189 28.004288-28.004287 28.004287h-113.794615c-15.479098 0-28.004288-12.539524-28.004288-28.004287s12.525189-28.004288 28.004288-28.004288h113.794615zM623.36084 478.51895c-15.479098 0-28.004288-12.539524-28.004288-28.004288s12.525189-28.004288 28.004288-28.004287h178.199049c15.479098 0 28.004288 12.539524 28.004288 28.004287 0 15.465788-12.525189 28.004288-28.004288 28.004288H623.36084z"  horiz-adv-x="1024" />

    
    <glyph glyph-name="icon-p_mrpbaobiao" unicode="&#58891;" d="M939.008-17.408H105.472V805.888c0 11.264-9.216 20.48-20.48 20.48s-20.48-9.216-20.48-20.48v-843.776c0-11.264 9.216-20.48 20.48-20.48h854.016c11.264 0 20.48 9.216 20.48 20.48s-9.216 20.48-20.48 20.48zM203.776 32.768h71.68c22.528 0 40.96 18.432 40.96 40.96V304.128c0 22.528-18.432 40.96-40.96 40.96h-71.68c-22.528 0-40.96-18.432-40.96-40.96v-230.4c0-22.528 18.432-40.96 40.96-40.96z m71.68 40.96v-20.48 20.48z m-71.68 230.4h71.68v-230.4h-71.68V304.128zM403.456 32.768h71.68c22.528 0 40.96 18.432 40.96 40.96V540.672c0 22.528-18.432 40.96-40.96 40.96h-71.68c-22.528 0-40.96-18.432-40.96-40.96v-466.944c0-22.528 18.432-40.96 40.96-40.96z m71.68 40.96v-20.48 20.48z m-71.68 466.944h71.68v-466.944h-71.68V540.672zM604.16 32.768h71.68c22.528 0 40.96 18.432 40.96 40.96V457.728c0 22.528-18.432 40.96-40.96 40.96h-71.68c-22.528 0-40.96-18.432-40.96-40.96v-384c0-22.528 18.432-40.96 40.96-40.96z m0 424.96h71.68v-384h-71.68V457.728zM803.84 32.768h71.68c22.528 0 40.96 18.432 40.96 40.96V762.88c0 22.528-18.432 40.96-40.96 40.96h-71.68c-22.528 0-40.96-18.432-40.96-40.96v-689.152c0-22.528 18.432-40.96 40.96-40.96z m0 730.112h71.68v-689.152h-71.68V762.88z"  horiz-adv-x="1024" />

    
    <glyph glyph-name="flow-entry" unicode="&#58970;" d="M460.46824789 534.9817492899999c90.96611118 0 165.12155934 74.78388415 165.12155933 166.69264933 0 91.90876518-73.99833914 166.69264932-165.12155933 166.69264935s-165.12155934-74.78388415-165.12155931-166.69264935c0-92.06587419 74.15544815-166.69264932 165.12155931-166.69264933z m0 270.38458956c56.40213111 0 102.2779592-46.50426407 102.2779592-103.84904922 0-57.18767612-45.87582809-103.84904921-102.2779592-103.8490492s-102.2779592 46.50426407-102.27795921 103.8490492c0 57.34478511 45.87582809 103.84904921 102.27795921 103.84904922zM653.39810029-14.428424810000024c-162.29359733-43.67630209-396.70022578-22.93791404-482.32463097 42.5765391-20.42417004 15.55379103-30.16492806 31.89312705-30.16492805 49.8035531 0 178.47582434 143.44051728 323.80164964 319.55970662 323.80164964 65.82867114 0 129.14359825-20.26706103 182.87487637-58.44454811 14.13981003-10.05497602 33.77843506-6.75568702 43.83341109 7.38412302 10.05497602 14.13981003 6.75568702 33.77843506-7.38412302 43.83341108-64.57179914 45.87582809-140.45544628 70.07061413-219.32416444 70.07061413-210.84027841 0-382.40330676-173.44833634-382.40330674-386.64524976 0-26.23720306 9.58364903-65.04312613 54.8310411-99.76421519 51.2175341-39.27725009 139.19857427-65.98578013 247.44667548-75.09810216 26.70853004-2.19952601 53.5741691-3.29928901 80.43980817-3.29928899 74.78388415 0 147.99667829 8.64099502 209.11207941 24.98033102 16.81066303 4.556161 26.70853004 21.68104205 22.15236904 38.49170509-4.556161 16.81066303-21.83815103 26.70853004-38.64881406 22.30947803zM914.51325879 194.36943662h-119.40284024v119.40284023c0 17.28199003-14.13981003 31.42180006-31.42180005 31.42180007s-31.42180006-14.13981003-31.42180006-31.42180007v-119.40284023h-119.40284025c-17.28199003 0-31.42180006-14.13981003-31.42180005-31.42180007s14.13981003-31.42180006 31.42180005-31.42180006h119.40284025v-119.40284023c0-17.28199003 14.13981003-31.42180006 31.42180006-31.42180004s31.42180006 14.13981003 31.42180005 31.42180004v119.40284023h119.40284024c17.28199003 0 31.42180006 14.13981003 31.42180006 31.42180006s-13.98270102 31.42180006-31.42180006 31.42180007z"  horiz-adv-x="1024" />

    
    <glyph glyph-name="wj-tsdj" unicode="&#59218;" d="M351.962 767.723l128.1 0.154 0.077-64-128.1-0.154zM255.804 831.6610000000001l64 0.077 0.192-159.9-64-0.077zM512.004 831.962l64 0.076 0.192-159.9-64-0.076zM160.9 0c-17.7 0-32 14.3-32 31.9l-0.8 639.6c0 17.7 14.3 32 32 32l64.1 0.1-0.1 64-64.1-0.1c-53.1-0.1-96-43.1-96-96.1l0.8-639.6c0.1-53 43.1-95.9 96.2-95.8l511.7 0.6-0.1 64-511.7-0.6zM513.1 193.29999999999995l-287.8-0.3c-17.7 0-32-14.3-32-32s14.3-32 32-31.9l287.8 0.3c17.7 0 32 14.3 32 32 0 17.6-14.3 31.9-32 31.9zM225.1 384.8c-17.7 0-32-14.3-32-32s14.3-32 32-31.9l383.8 0.5c17.7 0 32 14.3 32 32s-14.3 32-32 31.9l-383.8-0.5zM224.9 576.7c-17.7 0-32-14.3-32-32s14.3-32 32-31.9l383.8 0.5c17.7 0 32 14.3 32 32s-14.3 32-32 31.9l-383.8-0.5zM768.1 672.3c-0.1 53-43.1 95.9-96.1 95.8l-64-0.1 0.1-64 64 0.1c17.7 0 32-14.3 32-31.9l0.4-352.2h64l-0.4 352.3zM950.6 105.39999999999998L816.1-29c-12.5-12.5-32.8-12.5-45.3 0s-12.5 32.7 0 45.2l79.8 79.7L608 96c-12.9 0-24.6 7.8-29.6 19.8s-2.2 25.7 6.9 34.9L700 265.29999999999995c12.5 12.5 32.8 12.5 45.3 0s12.5-32.8 0-45.3l-60-60H928c12.9 0 24.6-7.8 29.6-19.8 4.9-11.9 2.2-25.7-7-34.8z"  horiz-adv-x="1024" />

    
    <glyph glyph-name="shanchu" unicode="&#58939;" d="M805.23374346-66H218.76625654c-40.42179229 0-73.28646738 36.02811972-73.28646738 80.40421758V693.84182753c0 15.55360312 12.56590547 28.11950771 28.11950772 28.11950773s28.11950771-12.56590547 28.11950771-28.11950773v-679.43760995c0-12.82952549 7.99648506-24.16520214 17.04745195-24.16520215h586.46748692c9.13883994 0 17.04745195 11.24780273 17.04745195 24.16520215V693.7539544900001c0 15.55360312 12.56590547 28.11950771 28.11950771 28.11950772s28.11950771-12.56590547 28.11950772-28.11950771v-679.34973692c0-44.37609873-32.8646751-80.40421758-73.28646738-80.40421758zM627.28998242 777.76098457H396.9736376c-15.55360312 0-28.11950771 12.56590547-28.11950772 28.11950772s12.56590547 28.11950771 28.11950772 28.11950771h230.31634482c15.55360312 0 28.11950771-12.56590547 28.11950771-28.11950771s-12.56590547-28.11950771-28.11950771-28.11950772zM933.08963135 665.7223198199999h-841.82776875c-15.55360312 0-28.11950771 12.56590547-28.11950772 28.11950771s12.56590547 28.11950771 28.11950772 28.11950773h841.82776875c15.55360312 0 28.11950771-12.56590547 28.11950771-28.11950773s-12.56590547-28.11950771-28.11950771-28.11950771zM512.08787305 48.32337451000001c-15.55360312 0-28.11950771 12.56590547-28.11950772 28.11950771V580.74868183c0 15.55360312 12.56590547 28.11950771 28.11950772 28.11950772s28.11950771-12.56590547 28.11950859-28.11950771v-504.39367266c0-15.4657292-12.56590547-28.03163467-28.11950859-28.03163467zM681.68365596 48.32337451000001c-15.55360312 0-28.11950771 12.56590547-28.11950859 28.11950771V580.74868183c0 15.55360312 12.56590547 28.11950771 28.11950859 28.11950772s28.11950771-12.56590547 28.11950771-28.11950771v-504.39367266c0-15.4657292-12.56590547-28.03163467-28.11950771-28.03163467zM343.98593984 48.32337451000001c-15.55360312 0-28.11950771 12.56590547-28.11950771 28.11950771V580.74868183c0 15.55360312 12.56590547 28.11950771 28.11950771 28.11950772s28.11950771-12.56590547 28.1195086-28.11950771v-504.39367266c0-15.4657292-12.56590547-28.03163467-28.1195086-28.03163467z"  horiz-adv-x="1024" />

    
    <glyph glyph-name="lizhi" unicode="&#58894;" d="M494.71713322 338.36386861999995a257.75695349 257.75695349 0 1 0 0 515.51390698 257.75695349 257.75695349 0 0 0 0-515.51390698z m0 73.64484404a184.11210945 184.11210945 0 1 1 0 368.2242189 184.11210945 184.11210945 0 0 1 0-368.2242189zM772.57912954 301.54144594a36.82242138 36.82242138 0 0 0-50.52036321-53.53980122 331.40179753 331.40179753 0 0 1-558.74343064-241.11321862 36.82242138 36.82242138 0 1 0-73.64484404 0 405.04664157 405.04664157 0 0 0 682.90863789 294.72666483zM847.47593577 49.89701478999996l78.06353425-78.06353424a36.82242138 36.82242138 0 0 0-52.06690534-52.14055035l-78.06353426 78.06353553-78.13717923-78.06353553a36.82242138 36.82242138 0 1 0-52.06690405 52.06690536l78.06353424 78.13717923-78.06353424 78.06353424a36.82242138 36.82242138 0 0 0 52.06690405 52.14054905l78.06353424-78.06353424 78.13717925 78.06353424a36.82242138 36.82242138 0 0 0 52.06690534-52.06690406l-78.06353425-78.06353424z"  horiz-adv-x="1024" />

    
    <glyph glyph-name="ziyuan" unicode="&#58965;" d="M228.280255-124.37650399999995H1.449398V846.720453H250.021231V-122.202406z m-183.348903 43.481953h163.057325V804.687898H44.931352zM65.22293 595.974522h123.923567v-30.437367H65.22293zM65.22293 714.825195h123.923567v-30.437368H65.22293zM126.097665 71.29228599999999m-53.627743 0a53.627742 53.627742 0 1 1 107.255485 0 53.627742 53.627742 0 1 1-107.255485 0ZM528.305732-124.37650399999995H302.924275V847.445152H550.046709L552.220807 823.530078v-945.732484z m-183.348903 43.481953H508.738854V805.412597H344.956829zM365.248408 597.4239210000001h123.923567v-30.437368H365.248408zM365.248408 715.549894h123.923567v-30.437367H365.248408zM426.123142 71.29228599999999m-53.627742 0a53.627742 53.627742 0 1 1 107.255485 0 53.627742 53.627742 0 1 1-107.255485 0ZM777.602265-128l-5.797594 23.190375L590.629866 848.169851l22.465675 5.797594L834.853503 896l5.797594-23.190375 181.899505-952.979476-22.465676-5.797594z m-136.968153 942.108988l170.304317-892.104742 160.883227 31.886766L798.618542 845.271054zM702.450955 620.4693560000001l121.45959 23.552725 5.797594-29.785138-121.45959-23.552725zM677.303892 732.8702049999999l121.74947 23.190375 5.652654-29.857608-121.74947-23.190375zM856.893229 121.32477200000005m-52.677848-10.048837a53.627742 53.627742 0 1 1 105.355696 20.097674 53.627742 53.627742 0 1 1-105.355696-20.097674Z"  horiz-adv-x="1024" />

    
    <glyph glyph-name="shangchuan" unicode="&#59165;" d="M989.86666667 315.73333333000005c-20.48 0-34.13333333-13.65333333-34.13333334-34.13333333v-273.06666667c0-20.48-13.65333333-34.13333333-34.13333333-34.13333333H102.4c-20.48 0-34.13333333 13.65333333-34.13333333 34.13333333v273.06666667c0 20.48-13.65333333 34.13333333-34.13333334 34.13333333s-34.13333333-13.65333333-34.13333333-34.13333333v-273.06666667c0-58.02666667 44.37333333-102.4 102.4-102.4h819.2c58.02666667 0 102.4 44.37333333 102.4 102.4v273.06666667c0 20.48-13.65333333 34.13333333-34.13333333 34.13333333zM245.76 513.70666667L477.86666667 745.81333333V110.93333332999998c0-20.48 13.65333333-34.13333333 34.13333333-34.13333333s34.13333333 13.65333333 34.13333333 34.13333333V745.81333333l232.10666667-232.10666666c13.65333333-13.65333333 34.13333333-13.65333333 47.78666667 0 13.65333333 13.65333333 13.65333333 34.13333333 0 47.78666666l-290.13333334 290.13333334c-3.41333333 3.41333333-6.82666667 6.82666667-10.24 6.82666666-6.82666667 3.41333333-17.06666667 3.41333333-27.30666666 0-3.41333333-3.41333333-6.82666667-3.41333333-10.24-6.82666666l-290.13333334-290.13333334c-13.65333333-13.65333333-13.65333333-34.13333333 0-47.78666666s34.13333333-13.65333333 47.78666667 0z"  horiz-adv-x="1024" />

    
    <glyph glyph-name="xiazai" unicode="&#59171;" d="M488.10666667 87.03999999999996c3.41333333-3.41333333 6.82666667-6.82666667 10.24-6.82666667 3.41333333 0 6.82666667-3.41333333 13.65333333-3.41333333 3.41333333 0 10.24 0 13.65333333 3.41333333 3.41333333 3.41333333 6.82666667 3.41333333 10.24 6.82666667l290.13333334 290.13333333c13.65333333 13.65333333 13.65333333 34.13333333 0 47.78666667-13.65333333 13.65333333-34.13333333 13.65333333-47.78666667 0L546.13333333 192.85333333000005V827.73333333c0 20.48-13.65333333 34.13333333-34.13333333 34.13333334s-34.13333333-13.65333333-34.13333333-34.13333334v-634.88l-232.10666667 232.10666667c-13.65333333 13.65333333-34.13333333 13.65333333-47.78666667 0-13.65333333-13.65333333-13.65333333-34.13333333 0-47.78666667l290.13333334-290.13333333zM989.86666667 315.73333333000005c-20.48 0-34.13333333-13.65333333-34.13333334-34.13333333v-273.06666667c0-20.48-13.65333333-34.13333333-34.13333333-34.13333333H102.4c-20.48 0-34.13333333 13.65333333-34.13333333 34.13333333v273.06666667c0 20.48-13.65333333 34.13333333-34.13333334 34.13333333s-34.13333333-13.65333333-34.13333333-34.13333333v-273.06666667c0-58.02666667 44.37333333-102.4 102.4-102.4h819.2c58.02666667 0 102.4 44.37333333 102.4 102.4v273.06666667c0 20.48-13.65333333 34.13333333-34.13333333 34.13333333z"  horiz-adv-x="1024" />

    
    <glyph glyph-name="rili" unicode="&#58889;" d="M874.7 48.94c0-30.74-25.15-55.89-55.89-55.89H204.49c-31.24 0-55.89 25.15-55.89 55.89V535.81h726.1V591.7h-726v71.66c0 30.74 24.55 55.89 55.89 55.89h111.68v-27.95c0-15.67 12.28-27.94 27.95-27.94 15.07 0 27.95 12.28 27.95 27.94v27.95h279.26v-27.95c0-15.67 12.28-27.94 27.94-27.94 15.07 0 27.95 12.28 27.95 27.94v27.95H819c30.74 0 55.89-25.15 55.89-55.89v-614.42h-0.19z m-55.79 726.11H707.23V803c0 15.07-12.88 27.94-27.95 27.94-15.67 0-27.94-12.88-27.94-27.94v-27.95H372.07V803c0 15.07-12.88 27.94-27.95 27.94-15.67 0-27.95-12.88-27.95-27.94v-27.95H204.49c-61.98 0-111.69-50.3-111.69-111.68v-614.32c0-61.98 49.7-111.68 111.69-111.68h614.32c61.48 0 111.68 49.7 111.68 111.68V663.36c0.11 61.38-50.2 111.69-111.58 111.69zM672.69 231.39h94.52v-92.62h-94.52v92.62z m-208.2 0h94.52v-92.62h-94.52v92.62z m-208.2 0h94.52v-92.62h-94.52v92.62z m416.4 196.53h94.52v-92.62h-94.52v92.62z m-208.2 0h94.52v-92.62h-94.52v92.62z m-208.2 0h94.52v-92.62h-94.52v92.62z"  horiz-adv-x="1024" />

    
    <glyph glyph-name="yemian-copy-copy" unicode="&#58888;" d="M562.805 815.3025a72.135 72.135 0 0 1-96.93 0L73.925 443.13a36.1575 36.1575 0 0 1 48.42-53.7075l6.2325 5.9175V6.899999999999977a72.315 72.315 0 0 1 72.315-72.405h210.443v217.71a50.9175 50.9175 0 0 0 50.94 50.985h99.0225a50.9175 50.9175 0 0 0 50.94-50.985v-217.71h215.438a72.315 72.315 0 0 1 72.3375 72.405V390.592c16.065-14.535 38.8575-13.4325 52.2225 1.4625a36.1575 36.1575 0 0 1-2.61 51.075L562.805 815.28Z"  horiz-adv-x="1024" />

    
    <glyph glyph-name="shuaxin" unicode="&#58996;" d="M947.2 174.08c-25.6 15.36-56.32 5.12-71.68-20.48-61.44-107.52-204.8-179.2-363.52-179.2-148.48 0-276.48 61.44-348.16 153.6H256c25.6 0 51.2 25.6 51.2 51.2s-25.6 51.2-51.2 51.2H51.2c-25.6 0-51.2-25.6-51.2-51.2v-204.8c0-25.6 25.6-51.2 51.2-51.2s51.2 25.6 51.2 51.2v66.56c92.16-102.4 245.76-168.96 409.6-168.96 194.56 0 373.76 92.16 455.68 230.4 10.24 25.6 5.12 56.32-20.48 71.68zM972.8 855.04c-25.6 0-51.2-25.6-51.2-51.2v-76.8c-92.16 102.4-245.76 168.96-409.6 168.96-199.68 0-373.76-92.16-455.68-230.4-15.36-25.6-5.12-56.32 20.48-71.68 5.12-5.12 15.36-5.12 25.6-5.12 15.36 0 35.84 10.24 46.08 25.6C204.8 721.92 348.16 793.6 512 793.6c143.36 0 271.36-56.32 343.04-143.36H768c-25.6 0-51.2-25.6-51.2-51.2s25.6-51.2 51.2-51.2h204.8c25.6 0 51.2 25.6 51.2 51.2v204.8c0 25.6-25.6 51.2-51.2 51.2z"  horiz-adv-x="1024" />

    
    <glyph glyph-name="kuozhangongneng" unicode="&#59046;" d="M423.20740246 874.19135842L95.30349913 874.19135842c-37.78467628 0-68.7007357-30.91473513-68.70073571-68.70073572l0-325.08624759c0-37.78467628 30.91473513-68.7007357 68.70073571-68.7007357l327.90390333 0c37.78467628 0 68.7007357 30.91473513 68.70073572 68.7007357L491.90813818 805.4906227C491.90813818 843.27529898 460.99340305 874.19135842 423.20740246 874.19135842zM420.31423759 511.84766893c0-17.73520411-14.51086267-32.24606676-32.24606676-32.24606676L130.44273077 479.60160217c-17.73520411 0-32.24606676 14.51086267-32.24606676 32.24606676L98.19666401 770.78589507c0 17.73520411 14.51086267 32.24606676 32.24606676 32.24606676l257.62676437 0c17.73520411 0 32.24606676-14.51086267 32.24606677-32.24606676L420.3155632 511.84766893zM423.20740246 373.33609212L95.30349913 373.33609212c-37.78467628 0-68.7007357-30.91473513-68.70073571-68.70073571l0-325.08624758c0-37.78467628 30.91473513-68.7007357 68.70073571-68.70073571l327.90390333 0c37.78467628 0 68.7007357 30.91473513 68.70073572 68.70073571L491.90813818 304.63535641C491.90813818 342.42135699000005 460.99340305 373.33609212 423.20740246 373.33609212zM420.31423759 10.993728229999988c0-17.73520411-14.51086267-32.24606676-32.24606676-32.24606675L130.44273077-21.252339819999975c-17.73520411 0-32.24606676 14.51086267-32.24606676 32.24606677L98.19666401 269.93063007c0 17.73520411 14.51086267 32.24606676 32.24606676 32.24606676l257.62676437 0c17.73520411 0 32.24606676-14.51086267 32.24606677-32.24606676L420.3155632 10.993728229999988zM981.66101706 180.37102507999998L804.16855235 357.86349107c-20.62969329 20.62969329-54.38857948 20.62969329-75.01827277 0L550.11982705 178.83303852999995c-20.62969329-20.62969329-20.62969329-54.38857948 0-75.01827277l177.49246469-177.49246469c20.62969329-20.62969329 54.38857948-20.62969329 75.01827277 0l179.03045255 179.03045254C1002.29203595 125.98244690000001 1002.29203595 159.7413318 981.66101706 180.37102507999998zM781.99557268 282.14842143l125.53075353-125.53075353c8.59736135-8.59736135 8.59736135-22.66709587 0-31.26578283l-124.89489316-124.89489316c-8.59736135-8.59736135-22.66709587-8.59736135-31.26578283 0l-125.53075353 125.53075353c-8.59736135 8.59736135-8.59736135 22.66709587 0 31.26578283l124.89489314 124.89489316C759.32847551 290.74578278 773.39821132 290.74578278 781.99557268 282.14842143zM593.60340125 411.70364071l327.90390334 0c37.78467628 0 68.7007357 30.91473513 68.7007357 68.70073571L990.20804029 805.4906227c0 37.78467628-30.91473513 68.7007357-68.7007357 68.70073572L593.60340125 874.19135842c-37.78467628 0-68.7007357-30.91473513-68.7007357-68.70073572l0-325.08624759C524.90266555 442.61837454 555.81740067 411.70364071 593.60340125 411.70364071zM596.49524182 770.78589507c0 17.73520411 14.51086267 32.24606676 32.24606676 32.24606676l257.62676436 0c17.73520411 0 32.24606676-14.51086267 32.24606677-32.24606676l0-258.93690182c0-17.73520411-14.51086267-32.24606676-32.24606677-32.24606678L628.74130858 479.60292647c-17.73520411 0-32.24606676 14.51086267-32.24606676 32.24606678L596.49524182 770.78589507z"  horiz-adv-x="1024" />

    
    <glyph glyph-name="B-fuwudianyewuliushui" unicode="&#58963;" d="M763.968 397.968a14.016 14.016 0 0 1-14.016 14.016H274.032a14 14 0 0 1-14-14.016v-27.968c0-7.744 6.256-14.016 14-14.016h475.92a14.016 14.016 0 0 1 14.016 14.016v27.968z m-112 462.016H372.016v-56.032h279.952V859.984z m196.032 0h-111.984v-56.032h83.984c61.84 0 83.968-22.128 83.968-83.968v-671.968c0-61.872-22.128-84-83.968-84h-616c-61.856 0-83.984 22.128-83.984 84V719.984c0 61.84 22.128 83.968 83.984 83.968h83.984V859.984h-112c-61.856 0-112-50.176-112-112.032v-727.936a112 112 0 0 1 112-112h672a112 112 0 0 1 112 112V747.952A112 112 0 0 1 848 859.984z m-84.032-266a14.016 14.016 0 0 1-14.016 14H274.032a14 14 0 0 1-14-14v-27.984c0-7.744 6.256-14.016 14-14.016h475.92a14.016 14.016 0 0 1 14.016 14.016v27.984z m-14.016-377.968H274.032a14 14 0 0 1-14-14.016v-28.016c0-7.696 6.256-13.968 14-13.968h475.92a14.016 14.016 0 0 1 14.016 13.968v28.016a14.016 14.016 0 0 1-14.016 14.016z"  horiz-adv-x="1024" />

    
    <glyph glyph-name="index" unicode="&#58883;" d="M562.805 815.3025a72.135 72.135 0 0 1-96.93 0L73.925 443.13a36.1575 36.1575 0 0 1 48.42-53.7075l6.2325 5.9175V6.899999999999977a72.315 72.315 0 0 1 72.315-72.405h210.4425v217.71a50.9175 50.9175 0 0 0 50.94 50.985h99.0225a50.9175 50.9175 0 0 0 50.94-50.985v-217.71h215.4375a72.315 72.315 0 0 1 72.3375 72.405V390.5925c16.065-14.535 38.8575-13.4325 52.2225 1.4625a36.1575 36.1575 0 0 1-2.61 51.075L562.805 815.28z"  horiz-adv-x="1024" />

    
    <glyph glyph-name="quanping-copy" unicode="&#58921;" d="M22.727805 530.357073H49.95122a22.727805 22.727805 0 0 1 22.727804 22.727805V774.119024L324.682927 521.365854a22.727805 22.727805 0 0 1 32.218536 0l19.480976 19.480975a22.727805 22.727805 0 0 1 0 32.218537l-249.756098 249.756097h215.289757a22.727805 22.727805 0 0 1 23.726829 23.227317V873.272195a22.727805 22.727805 0 0 1-22.727805 22.727805H22.727805A22.727805 22.727805 0 0 1 0 873.272195v-320.187317a22.727805 22.727805 0 0 1 22.727805-22.727805zM1001.272195 237.642927H974.04878a22.727805 22.727805 0 0 1-22.727804-22.727805v-215.289756L699.317073 252.12878a22.727805 22.727805 0 0 1-32.218536 0l-19.480976-19.480975a22.727805 22.727805 0 0 1 0-32.218537l254.501463-255.250731h-221.034146a22.727805 22.727805 0 0 1-22.727805-22.727805v-27.722927a22.727805 22.727805 0 0 1 22.727805-22.727805h320.187317a22.727805 22.727805 0 0 1 22.727805 22.727805V214.915122a22.727805 22.727805 0 0 1-22.727805 22.727805zM1001.272195 896H681.084878a22.727805 22.727805 0 0 1-22.727805-22.727805V846.04878a22.727805 22.727805 0 0 1 22.727805-22.727804h221.034146L646.618537 567.570732a22.727805 22.727805 0 0 1 0-32.218537l19.480975-19.480975a22.727805 22.727805 0 0 1 32.218537 0l252.503414 252.253658v-215.04a22.727805 22.727805 0 0 1 22.727805-22.727805h27.722927a22.727805 22.727805 0 0 1 22.727805 22.727805V873.272195a22.727805 22.727805 0 0 1-22.727805 22.727805zM357.650732 246.634146A22.727805 22.727805 0 0 1 324.682927 246.634146L73.178537-6.119023999999968v221.034146a22.727805 22.727805 0 0 1-23.227317 22.727805H22.727805a22.727805 22.727805 0 0 1-22.727805-22.727805v-320.187317a22.727805 22.727805 0 0 1 22.727805-22.727805h320.187317a22.727805 22.727805 0 0 1 22.727805 22.727805V-78.04877999999997a22.727805 22.727805 0 0 1-22.727805 22.727804H127.875122l249.756098 249.756098a22.727805 22.727805 0 0 1 0 32.218537z"  horiz-adv-x="1024" />

    
    <glyph glyph-name="shouhui" unicode="&#58895;" d="M856 651.7H168c-22 0-40 18-40 40s18 40 40 40h688c22 0 40-18 40-40s-18-40-40-40zM604.3 446.6H168c-22 0-40 18-40 40s18 40 40 40h436.3c22 0 40-18 40-40s-18-40-40-40zM604.3 241.4H168c-22 0-40 18-40 40s18 40 40 40h436.3c22 0 40-18 40-40s-18-40-40-40zM856 36.3H168c-22 0-40 18-40 40s18 40 40 40h688c22 0 40-18 40-40s-18-40-40-40zM896 526.6L703.8 383.8 896 241.4z"  horiz-adv-x="1024" />

    
    <glyph glyph-name="dingwei1" unicode="&#59161;" d="M512.000512 896C285.764779 896 102.400512 711.748267 102.400512 484.010667a411.306667 411.306667 0 0 1 120.081067-291.293867L512.000512-98.577067l289.518933 291.293867A413.559467 413.559467 0 0 1 921.600512 484.0448C921.293312 711.748267 737.963179 896 512.000512 896z"  horiz-adv-x="1024" />

    
    <glyph glyph-name="suo" unicode="&#58887;" d="M853.333287 492.605801h-62.060911v124.121823C791.272376 771.878177 667.150552 896 512 896 356.848296 896 232.726473 771.878177 232.726473 616.727624v-124.121823H170.666713C136.533499 492.605801 108.605801 464.679254 108.605801 430.546041v-496.48384c0-34.134365 27.927698-62.060912 62.060912-62.060911h682.666574c34.133214 0 62.060912 27.926547 62.060912 62.060911V430.544889c0 34.134365-27.927698 62.060912-62.060912 62.060912zM574.05976 135.758149v-62.05976c0-24.824365-21.722183-46.545396-46.546547-46.545396-24.823213 0-46.544244 21.721031-46.544245 46.544245V135.758149c-18.618849 15.515516-31.031032 37.236547-31.031031 62.060912 0 43.443214 34.133214 77.576428 77.575276 77.576428 43.443214 0 77.576428-34.133214 77.576427-77.576428 0-24.824365-12.413334-46.544244-31.02988-62.060912zM698.181584 492.605801H325.818416v124.121823c0 102.399641 83.780791 186.181584 186.181584 186.181584C614.399641 802.909208 698.181584 719.127265 698.181584 616.727624v-124.121823z"  horiz-adv-x="1024" />

    
    <glyph glyph-name="zhuangtai" unicode="&#58906;" d="M0.000858 383.173779a511.909369 511.909369 0 1 0 513.564447-510.989881A511.786771 511.786771 0 0 0 0.000858 383.173779z m954.244181 0a440.005443 440.005443 0 0 1-440.311939 442.886504c-247.648647 0.429094-444.296385-195.053959-444.418983-441.783119a440.373238 440.373238 0 0 1 440.373238-442.947803c247.648647-0.306496 444.296385 195.237857 444.357684 441.844418zM560.213974 298.948719H464.096875v364.117071h96.117099zM560.091375 222.631253v-118.000903H463.545182V222.631253z"  horiz-adv-x="1024" />

    
    <glyph glyph-name="wangluo" unicode="&#58995;" d="M548.571429 531.602286V420.571429h145.627428a965.485714 965.485714 0 0 1-14.336 137.874285 509.659429 509.659429 0 0 0-131.291428-26.843428z m-73.142858 0a509.659429 509.659429 0 0 0-131.291428 26.843428A965.485714 965.485714 0 0 1 329.874286 420.571429H475.428571V531.602286z m73.142858-295.204572c45.641143-3.218286 89.673143-12.434286 131.291428-26.843428A965.485714 965.485714 0 0 1 694.125714 347.428571H548.571429v-111.030857z m-73.142858 0V347.428571H329.801143c1.609143-48.64 6.582857-95.085714 14.336-137.874285A509.659429 509.659429 0 0 0 475.428571 236.397714z m73.142858-73.362285v-209.115429c47.542857 23.186286 88.502857 90.697143 114.834285 183.808a436.516571 436.516571 0 0 1-114.834285 25.307429z m-73.142858 0a436.516571 436.516571 0 0 1-114.834285-25.307429c26.331429-93.110857 67.291429-160.621714 114.834285-183.808v209.188571z m73.142858 441.929142a436.516571 436.516571 0 0 1 114.834285 25.307429C637.074286 723.382857 596.114286 790.893714 548.571429 814.08v-209.188571z m-73.142858 0V814.08c-47.542857-23.186286-88.502857-90.697143-114.834285-183.808 36.278857-13.385143 74.825143-22.016 114.834285-25.307429zM74.605714 420.571429H256.731429c2.048 58.88 9.142857 114.980571 20.333714 166.765714a513.097143 513.097143 0 0 0-105.984 72.996571A436.809143 436.809143 0 0 1 74.678857 420.571429z m0-73.142858a436.809143 436.809143 0 0 1 96.402286-239.762285c31.963429 28.525714 67.584 53.174857 105.984 73.069714A949.028571 949.028571 0 0 0 256.658286 347.428571H74.605714z m874.788572 73.142858a436.809143 436.809143 0 0 1-96.402286 239.762285c-31.963429-28.525714-67.584-53.174857-105.984-73.069714 11.190857-51.712 18.285714-107.812571 20.333714-166.692571h181.979429z m0-73.142858H767.268571a949.028571 949.028571 0 0 0-20.333714-166.765714 513.097143 513.097143 0 0 0 105.984-72.996571A436.809143 436.809143 0 0 1 949.321143 347.428571z m-589.531429-375.222857c-25.088 37.156571-46.665143 83.163429-63.561143 135.826286-26.697143-15.140571-51.712-32.914286-74.605714-53.174857 40.228571-35.474286 86.893714-63.634286 138.093714-82.651429z m304.274286 0a438.637714 438.637714 0 0 1 138.166857 82.651429 440.100571 440.100571 0 0 1-74.605714 53.174857c-16.896-52.662857-38.473143-98.742857-63.488-135.753143zM359.862857 795.794286c-51.2-19.017143-98.011429-47.177143-138.166857-82.651429 22.893714-20.187429 47.908571-38.034286 74.605714-53.174857 16.896 52.662857 38.473143 98.742857 63.488 135.753143z m304.274286 0c25.088-37.156571 46.665143-83.163429 63.561143-135.826286 26.697143 15.140571 51.712 32.914286 74.605714 53.174857A438.637714 438.637714 0 0 1 664.137143 795.794286zM512-128A512 512 0 1 0 512 896a512 512 0 0 0 0-1024z"  horiz-adv-x="1024" />

    
    <glyph glyph-name="jinggai" unicode="&#58978;" d="M246.58429 335.272478l-1.580669 11.006136H158.613256l3.122309-15.611541a353.835576 353.835576 0 0 1 288.989137-289.047681l15.611541-3.141822v81.648359l-10.986622 1.561154a258.761291 258.761291 0 0 0-208.765331 213.585395z m1.561154 97.396501a266.820749 266.820749 0 0 0 207.243206 212.004726l10.986622 1.561154V727.883218l-15.611541-3.122308A353.85509 353.85509 0 0 1 161.794108 435.791287l-3.122308-15.611541h86.390364z m524.547776 1.561154l1.561154-11.006136h86.390365l-3.122308 15.611541A353.85509 353.85509 0 0 1 568.572322 727.883218l-15.611541 3.122309v-86.390365l10.986622-1.561154a264.966879 264.966879 0 0 0 208.80436-208.804361z m-76.964897-56.591836v12.547776a182.342798 182.342798 0 0 1-312.406449 117.808591 189.289934 189.289934 0 0 1-54.972139-132.171209 183.786866 183.786866 0 0 1 367.495675 1.561155z m-183.747837-97.337958A100.518809 100.518809 0 1 0 612.499295 380.819149a99.250372 99.250372 0 0 0-97.981934-100.51881z m265.396196 54.972139a283.837329 283.837329 0 0 0-208.80436-213.585395l-9.425468-3.122308v-80.009147l15.748142 3.122308a353.874605 353.874605 0 0 1 288.872051 288.91108l3.122308 15.61154h-86.390365zM511.980486 896C229.21645 896 0 666.764036 0 384s229.235964-512 511.980486-512 512.019514 229.235964 512.019514 512C1023.921943 666.744521 794.744521 895.921942 511.980486 896zM78.526051 384L548.179747-47.873766v40.82418a34.560049 34.560049 0 0 1-69.100584 0v-40.82418A435.347334 435.347334 0 0 0 80.145749 349.459466H122.570111a34.540534 34.540534 0 0 1 0 69.081068H80.028662A432.556771 432.556771 0 0 0 477.400923 815.912795v-40.863209a34.560049 34.560049 0 0 1 69.100583 0V815.912795a435.171704 435.171704 0 0 0 397.352746-397.391775h-39.223997a34.540534 34.540534 0 1 1-0.234173-69.081069h39.45817a434.97656 434.97656 0 0 0-395.791592-397.313717z"  horiz-adv-x="1024" />

    
    <glyph glyph-name="zhuangtai1" unicode="&#58993;" d="M828 384c0 174.2-141.8 316-316 316S196 558.2 196 384s141.8-316 316-316 316 141.8 316 316zM512 188c-108.1 0-196 87.9-196 196s87.9 196 196 196 196-87.9 196-196-87.9-196-196-196zM579.5 835C777 805.5 933.5 649 963 451.5c2-13.6 13.9-23.5 27.6-23.5 17 0 30.2 15.1 27.7 32C985.2 681.6 809.6 857.2 588 890.3c-16.8 2.5-32-10.7-32-27.7 0-13.7 10-25.6 23.5-27.6zM33.4 428c13.7 0 25.6 10 27.6 23.5C90.5 649 247 805.5 444.5 835 458 837 468 848.9 468 862.6c0 17-15.1 30.2-32 27.7C214.4 857.2 38.8 681.6 5.7 460c-2.6-16.9 10.7-32 27.7-32zM444.5-67C247-37.5 90.5 119 61 316.5 59 330 47.1 340 33.4 340c-17 0-30.2-15.1-27.7-32C38.8 86.4 214.4-89.2 436-122.3c16.8-2.5 32 10.7 32 27.7 0 13.7-10 25.6-23.5 27.6zM990.6 340c-13.7 0-25.6-10-27.6-23.5C933.5 119 777-37.5 579.5-67c-13.6-2-23.5-13.9-23.5-27.6 0-17 15.1-30.2 32-27.7 221.6 33.1 397.3 208.8 430.4 430.4 2.5 16.8-10.8 31.9-27.8 31.9z"  horiz-adv-x="1024" />

    
    <glyph glyph-name="zhuangtai2" unicode="&#59476;" d="M73.142857-18.285714h950.857143V-128H73.142857v109.714286z m438.857143 408.283428V91.428571H72.411429V420.571429a475.428571 475.428571 0 1 0 950.857142 0V91.428571H585.142857V390.509714a109.714286 109.714286 0 1 1-73.142857-0.512z"  horiz-adv-x="1024" />

    
    <glyph glyph-name="suo1" unicode="&#58898;" d="M61.610057 464.700357h643.294383a62.328762 62.328762 0 0 0 61.559271-63.521473v-465.541988a62.328762 62.328762 0 0 0-61.559271-63.521472H61.610057a62.328762 62.328762 0 0 0-61.559271 63.521472v465.541988a62.328762 62.328762 0 0 0 61.559271 63.521473z m287.404847-310.451099v-98.80263a6.77152 6.77152 0 0 1 6.848469-7.040842h54.749277a6.848469 6.848469 0 0 1 6.848469 7.040842v98.80263a77.987902 77.987902 0 0 1 41.052339 70.562314 75.333158 75.333158 0 1 1-150.550893 0 71.100958 71.100958 0 0 1 41.052339-70.562314zM955.719995 627.8709a162.285628 162.285628 0 1 1-324.571256 0v-169.287996H539.425425V634.911741a261.088259 261.088259 0 0 0 522.138042 0v-169.287995h-98.80263l-7.040842 162.285628z"  horiz-adv-x="1061" />

    
    <glyph glyph-name="xitongpeizhi" unicode="&#59012;" d="M446.80533333 97.96266666999998v-78.39288889h64.39822222v78.39288889h41.87022223c18.20444445 0 32.19911111 13.99466667 32.19911111 32.19911111s-13.99466667 32.19911111-32.19911111 32.19911111H163.27111111c-53.70311111 0-96.59733333 42.89422222-96.59733333 96.59733333V651.94666667c0 53.70311111 42.89422222 96.59733333 96.59733333 96.59733333h633.40088889c50.40355555 0 92.27377778-38.68444445 96.59733333-89.088v-29.01333333c0-18.20444445 13.99466667-32.19911111 32.19911112-32.19911112s32.19911111 13.99466667 32.1991111 32.19911112v34.36088888C950.272 747.52 880.52622222 812.94222222 796.78577778 812.94222222H163.27111111C74.18311111 812.94222222 2.27555555 741.03466667 2.27555555 651.94666667v-392.87466667c0-89.088 71.90755555-160.99555555 160.99555556-160.99555555h283.53422222z m321.99111112-78.39288889H189.09866667c-18.20444445 0-32.19911111-13.99466667-32.19911112-32.19911111s13.99466667-32.19911111 32.19911112-32.19911112h579.69777778c18.20444445 0 32.19911111 13.99466667 32.1991111 32.19911112 0 18.31822222-13.88088889 32.19911111-32.1991111 32.19911111z m0 0M1006.13688889 427.57688889L954.59555555 440.43377778c-1.024 2.16177778-2.16177778 3.18577778-2.16177777 5.34755555l26.85155555 45.056c5.34755555 8.64711111 4.32355555 19.34222222-3.18577778 25.71377778l-56.88888888 58.02666667c-7.50933333 7.50933333-18.20444445 8.64711111-26.85155556 3.18577777l-46.19377778-29.01333333-9.67111111 44.032c-2.16177778 9.67111111-10.69511111 16.15644445-20.36622222 16.15644445h-80.55466667c-9.67111111 0-18.20444445-6.48533333-20.36622222-16.15644445l-9.67111111-41.87022222-48.35555555 30.03733333c-10.69511111 4.32355555-21.504 2.16177778-29.01333334-4.32355555l-58.02666666-58.02666667c-7.50933333-7.50933333-8.53333333-18.20444445-3.18577778-26.85155556l30.03733333-49.37955555-63.37422222-15.01866667c-9.67111111-2.16177778-16.15644445-10.69511111-16.15644445-20.36622222v-81.57866666c0-9.67111111 6.48533333-18.20444445 16.15644445-20.36622223l62.23644444-15.01866667-29.01333333-48.35555555c-5.34755555-8.64711111-4.32355555-19.34222222 3.18577778-26.85155555l56.88888888-56.8888889c7.50933333-7.50933333 18.20444445-8.64711111 26.85155556-3.18577777l42.89422222 25.71377777 13.99466667-59.05066666c2.16177778-9.67111111 10.69511111-16.15644445 20.36622222-16.15644444h81.57866667c9.67111111 0 18.20444445 6.48533333 20.36622222 16.15644444l13.99466667 60.07466666 44.032-26.85155555c8.53333333-5.34755555 19.34222222-4.32355555 26.85155555 3.18577778l55.86488889 56.88888889c6.48533333 7.50933333 8.53333333 18.20444445 3.18577778 25.71377778L951.18222222 283.30666667c1.024 3.18577778 2.16177778 6.48533333 4.32355556 8.64711111l49.37955555 11.83288889c9.67111111 2.16177778 16.15644445 10.69511111 16.15644445 20.36622222v81.57866666c1.13777778 11.15022222-5.34755555 19.68355555-14.90488889 21.84533334z m-26.85155556-85.90222222l-44.032-10.69511112c-7.50933333-2.16177778-12.85688889-7.50933333-15.01866666-13.99466666-3.18577778-8.53333333-6.48533333-17.18044445-10.69511112-24.68977778-3.18577778-6.48533333-3.18577778-15.01866667 1.024-21.504l23.66577778-38.68444444-32.19911111-33.33688889-40.84622222 24.80355555c-6.48533333 4.32355555-13.99466667 4.32355555-20.36622222 1.024-5.34755555-2.16177778-10.69511111-4.32355555-15.01866667-6.48533333-6.48533333-2.16177778-11.83288889-8.53333333-13.99466666-15.01866667l-15.01866667-55.75111111h-48.35555556l-13.99466667 59.05066667c-2.16177778 6.48533333-6.48533333 12.85688889-12.85688888 15.01866666-4.32355555 1.024-8.64711111 3.18577778-11.83288889 5.34755556-6.48533333 3.18577778-13.99466667 3.18577778-20.36622223-1.024l-42.89422222-25.71377778-33.33688888 33.33688889 25.71377777 42.89422223c4.32355555 6.48533333 4.32355555 13.99466667 1.024 20.36622222-3.18577778 5.34755555-5.34755555 11.83288889-7.50933333 17.18044444-2.16177778 6.48533333-8.64711111 11.83288889-15.01866667 13.99466667l-56.88888889 13.99466667v48.35555555l59.05066667 13.99466667c6.48533333 2.16177778 12.85688889 6.48533333 15.01866667 12.85688888 2.16177778 5.34755555 4.32355555 10.69511111 7.50933333 16.15644445 3.18577778 6.48533333 3.18577778 15.01866667-1.024 21.504l-27.87555555 46.19377778 33.33688888 33.33688889 50.40355556-31.17511112c6.48533333-3.18577778 12.85688889-4.32355555 19.34222222-1.024l9.67111111 3.18577778h1.024c6.48533333 2.16177778 11.83288889 8.64711111 13.99466667 15.01866667l10.69511111 45.056h45.056l9.67111111-44.032c2.16177778-7.50933333 7.50933333-12.85688889 13.99466667-16.15644445 4.32355555-1.024 9.67111111-3.18577778 12.85688889-5.34755555 6.48533333-3.18577778 13.99466667-2.16177778 19.34222222 1.024L897.70666667 528.49777778l33.33688888-33.33688889-24.68977777-40.84622222c-4.32355555-6.48533333-4.32355555-15.01866667 0-21.504 4.32355555-6.48533333 7.50933333-13.99466667 9.67111111-21.504 2.16177778-6.48533333 8.64711111-11.83288889 15.01866666-13.99466667l46.19377778-10.69511111v-45.056h2.048z m0 0M769.93422222 464.09955555c-59.05066667 0-107.40622222-48.35555555-107.40622222-107.40622222 0-59.05066667 48.35555555-107.40622222 107.40622222-107.40622222 59.05066667 0 107.40622222 48.35555555 107.40622223 107.40622222-0.11377778 59.05066667-47.33155555 107.40622222-107.40622223 107.40622222z m0-171.80444444c-35.38488889 0-64.39822222 29.01333333-64.39822222 64.39822222s29.01333333 64.39822222 64.39822222 64.39822222 64.39822222-29.01333333 64.39822223-64.39822222c1.024-35.38488889-27.98933333-64.39822222-64.39822223-64.39822222z m0 0"  horiz-adv-x="1024" />

    
    <glyph glyph-name="caiwuguanli" unicode="&#58915;" d="M137.6342144 454.60103253c20.12447573 0 36.40896213 16.30194987 36.40896214 36.40896214 0 183.6973792 149.43981653 333.1371968 333.15575253 333.1371968 183.67991467 0 333.11973227-149.43981653 333.11973227-333.1371968 0-63.57378453-17.9556128-125.3683808-51.94684267-178.72001814-10.80938773-16.9601408-5.7960064-39.46632747 11.1641344-50.25825173 6.04487467-3.87601067 12.83526187-5.70650133 19.51977067-5.70650133 12.01770773 0 23.82256853 5.9553696 30.7559456 16.8531712 41.42234347 65.04843733 63.32491627 140.3735968 63.32491626 217.83050773 0 223.84045333-182.11575787 405.95512-405.93765546 405.95512-223.85791787 0-405.97367573-182.11575787-405.97367574-405.95512C101.22525334 470.90407467 117.50973867 454.60103253 137.6342144 454.60103253zM628.53848427 685.909712c-11.21325333 11.21325333-29.3893536 11.21325333-40.58841707 0l-80.33308373-80.33090133-81.18665813 81.18665813c-11.21325333 11.21106987-29.37516373 11.21106987-40.58841707 0-11.21106987-11.21106987-11.21106987-29.3893536 0-40.5840512l92.97077867-92.97077867c-0.0338368-0.57305173-0.3307328-1.06205547-0.3307328-1.64493013l0-28.70169173-71.75586774 0c-15.85333227 0-28.7049664-12.85163413-28.7049664-28.7049664s12.85054293-28.70169173 28.7049664-28.70169174l71.75586774 0 0-57.40447573-71.75586774 0c-15.85333227 0-28.7049664-12.8538176-28.7049664-28.70169173 0-15.85114987 12.85054293-28.7038752 28.7049664-28.7038752l71.75586774 0 0-86.10616854c0-15.85333227 12.85163413-28.69950933 28.7049664-28.69950933 15.8489664 0 28.69950933 12.84617707 28.69950933 28.69950933l0 86.10616854 71.75586773 0c15.85114987 0 28.7038752 12.8538176 28.7038752 28.7038752 0 15.8489664-12.8538176 28.70169173-28.7038752 28.70169173l-71.75586773 0 0 57.40447573 71.75586773 0c15.85114987 0 28.7038752 12.84835947 28.7038752 28.70169174s-12.8538176 28.7049664-28.7038752 28.7049664l-71.75586773 0 0 28.70169173c0 0.32636693-0.17573547 0.59597333-0.18665067 0.9201568l92.83979627 92.83979627C639.74955414 656.5345472 639.74955414 674.69864213 628.53848427 685.909712zM959.42931947 151.66856107c-100.80029973 20.6931616-214.43586027 84.15997653-214.64870827 84.15997653-49.67101013 33.20860587-88.7105504 49.35119253-119.3595264 49.35119253-25.81351253 0-47.32422827-11.7328192-58.95116906-32.19566933-15.04014507-26.34617813-10.1686624-61.5468192 2.34678186-82.70169707 5.75998613-9.65346133 16.99506987-26.24029973 28.94182827-43.430752-248.49803947 15.5913664-291.62643947 72.42715627-340.90668267 137.368624-15.39598293 20.24890987-31.28861013 41.1734752-53.1202336 62.31088854-40.24895253 38.9151072-72.99584213 57.0311744-103.07504106 57.0311744-23.28881173 0-43.3772672-11.07572053-56.6043872-31.18273174-27.2707008-41.52931307-18.1684608-116.48007893-8.28468694-139.30608426 112.10633173-258.8981056 382.684864-304.14188373 394.13279467-305.93744534 1.8839744-0.30235307 3.76904107-0.44425173 5.65301653-0.44425173l516.55077867 0c20.12447573 0 36.40896213 16.30194987 36.40896213 36.40896213L988.51304534 116.00620373000004C988.5141376 133.28616107000005 976.35343894 148.20187199999998 959.42931947 151.66856107zM915.6962144-20.49138240000002L438.78968107-20.49138240000002c-25.77749227 4.97736107-245.5825728 53.19118293-336.07122027 262.18687467-5.01338133 13.56440107-5.86695573 54.77280533 0.81755307 68.46273173 5.93790507-1.77809707 21.368816-8.71147413 49.56404053-35.9647104 17.8486432-17.26249387 31.39557973-35.111136 45.72405014-54.00873707 62.47134293-82.25744533 121.422512-159.9643168 470.86165866-169.35144533 15.50186133-0.87103787 26.73803627 7.18224533 33.20860587 19.41389227 6.4705696 12.266576 5.40414827 27.14626667-2.7375488 38.36388586-15.35996267 21.13741333-57.5998592 80.10713813-68.5511456 98.57795094-0.56868587 1.1024416-1.03149227 2.86198293-1.3152896 4.6935648 9.8488448-1.65366293 32.5329504-8.8533728 76.33809707-38.02660374 4.62261547-2.61311467 105.59974187-59.27098667 209.06664106-86.64865706L915.6962144-20.49138240000002 915.6962144-20.49138240000002z"  horiz-adv-x="1024" />

    
    <glyph glyph-name="yonhu" unicode="&#58967;" d="M348.24131925 359.65575508999996c121.16236515 0 219.73624149 98.45511851 219.7362415 219.47078201 0 121.0156635-98.57387634 219.46845298-219.7362415 219.46845298s-219.73624149-98.45278947-219.73624149-219.46845298C128.50507776 458.10970851 227.0789541 359.65575508999996 348.24131925 359.65575508999996zM348.24131925 740.31387193c89.02665671 0 161.45512334-72.30854371 161.45512334-161.18733596 0-88.87995619-72.42846663-161.18966386-161.45512334-161.18966386s-161.45512334 72.3097088-161.45512334 161.18966386C186.78619477 668.00532821 259.21466141 740.31387193 348.24131925 740.31387193zM819.45015523 353.96584448c57.24838798 24.04734976 97.55046115 80.64140402 97.55046116 146.46482489 0 87.56430279-71.32005717 158.80285981-158.98448896 158.8028598-87.66326784 0-158.98332501-71.23855701-158.98332501-158.8028598 0-71.64722517 47.7523968-132.35473294 113.12989297-152.06159132-50.78072889-14.20556402-95.77258211-44.47839915-127.84658204-86.19509078-64.16080782 60.30931968-147.84102173 93.41488469-236.64879047 93.4148847-91.8093221 0-178.1383077-35.3782693-243.08617785-99.61824939C39.54827833 191.64797838000004 3.73223424 106.09907142999998 3.73223424 15.086126649999983c0-5.83894016 0.15019349-11.73260174 0.44708978-17.51914724l1.41927537-27.64618638 684.1374447 0 1.42160441 27.64385735c0.29805909 5.7923675 0.44941767 11.68602909 0.44941767 17.52147627 0 20.69068686-1.87102208 41.09262962-5.49547236 61.03234674l334.00015758 0 1.41694749 27.64967936c0.20957298 4.10181177 0.31552398 8.27697379 0.31552398 12.40905614C1021.84422173 235.29972850000001 934.21588253 334.51978866 819.45015523 353.96584448zM657.31391943 500.43066937c0 55.4274304 45.17464747 100.52057771 100.702208 100.5205777s100.70337195-45.09314731 100.70337195-100.5205777c0-55.42859435-45.17581255-100.52290674-100.70337195-100.52290674S657.31391943 445.00207502 657.31391943 500.43066937zM62.31723235 28.201911180000025c6.96132039 149.55137138 132.29186048 269.10700885 285.35125334 269.10700885 153.06055566 0 278.38993294-119.55563747 285.35241728-269.10700885L62.31723235 28.201911180000025zM669.97213525 134.39959039999997c-11.18188999 29.6522661-26.55291278 57.69198365-45.85343203 83.37749675C658.13591154 268.00826937 715.74406599 299.15316224000003 778.24924558 299.15316224000003c95.95886933 0 175.11579762-72.37840213 184.40337863-164.75357184L669.97213525 134.39959039999997z"  horiz-adv-x="1024" />

    
    <glyph glyph-name="yingxiaozhongxin" unicode="&#58979;" d="M180.46461867 27.904724269999974l59.35176 0c49.09359253 0 89.02818453 39.87674133 89.02818453 89.02818453L328.8445632 354.31047573c0 49.09250133-39.93459307 89.02818453-89.02818453 89.02818454L180.46461867 443.33866133c-49.09250133 0-89.02818453-39.93568427-89.02818454-89.02818453L91.43643413 116.93181760000004C91.43643413 67.78146560000005 131.37102613 27.904724269999974 180.46461867 27.904724269999974zM150.78819307 354.31047573c0 16.34561067 13.33081493 29.6764256 29.6764256 29.6764256l59.35176 0c16.34561067 0 29.6764256-13.33081493 29.6764256-29.6764256L269.49280427 116.93181760000004c0-16.34561067-13.33081493-29.6764256-29.6764256-29.6764256L180.46461867 87.25539200000003c-16.34451947 0-29.6764256 13.33081493-29.6764256 29.6764256L150.78819307 354.31047573zM464.93610133 27.904724269999974l59.35176 0c49.09250133 0 89.02818453 39.87674133 89.02818454 89.02818453L613.31604587 532.36575467c0 49.09250133-39.93568427 89.02818453-89.02818454 89.02818453l-59.35176 0c-49.09359253 0-89.02818453-39.93568427-89.02818453-89.02818453L375.9079168 116.93181760000004C375.9079168 67.78146560000005 415.8425088 27.904724269999974 464.93610133 27.904724269999974zM435.25967573 532.36575467c0 16.34451947 13.33081493 29.6764256 29.6764256 29.6764256l59.35176 0c16.34451947 0 29.6764256-13.33190613 29.6764256-29.6764256L553.96428587 116.93181760000004c0-16.34561067-13.33190613-29.6764256-29.6764256-29.6764256l-59.35176 0c-16.34561067 0-29.6764256 13.33081493-29.6764256 29.6764256L435.25967573 532.36575467zM749.40649173 27.904724269999974l59.35176 0c49.09359253 0 89.02818453 39.87674133 89.02818454 89.02818453L897.78643627 769.7727925300001c0 49.09250133-39.93459307 89.02818453-89.02818454 89.02818454l-59.35176 0c-49.09250133 0-89.02818453-39.93568427-89.02818453-89.02818454L660.3783072 116.93181760000004C660.3783072 67.78146560000005 700.31399147 27.904724269999974 749.40649173 27.904724269999974zM719.7300672 769.7727925300001c0 16.34451947 13.33081493 29.6764256 29.6764256 29.6764256l59.35176 0c16.34561067 0 29.6764256-13.33190613 29.6764256-29.6764256L838.43467733 116.93181760000004c0-16.34561067-13.33081493-29.6764256-29.6764256-29.6764256l-59.35176 0c-16.34561067 0-29.6764256 13.33081493-29.6764256 29.6764256L719.7300672 769.7727925300001zM957.13710507-31.447034669999994L66.86071253-31.447034669999994c-16.40237013 0-29.6764256-13.33081493-29.6764256-29.6764256 0-16.4602208 13.2729632-29.6764256 29.6764256-29.6764256l890.27639254 0c16.40237013 0 29.6764256 13.21511253 29.6764256 29.6764256C986.81353067-44.77784959999997 973.5405664-31.447034669999994 957.13710507-31.447034669999994z"  horiz-adv-x="1024" />

    
    </font>
</defs>
</svg>
